G04 #@! TF.GenerationSoftware,KiCad,Pcbnew,(6.0.4)*
G04 #@! TF.CreationDate,2022-05-08T20:33:45-07:00*
G04 #@! TF.ProjectId,PCB_Design,5043425f-4465-4736-9967-6e2e6b696361,rev?*
G04 #@! TF.SameCoordinates,Original*
G04 #@! TF.FileFunction,Soldermask,Bot*
G04 #@! TF.FilePolarity,Negative*
%FSLAX46Y46*%
G04 Gerber Fmt 4.6, Leading zero omitted, Abs format (unit mm)*
G04 Created by KiCad (PCBNEW (6.0.4)) date 2022-05-08 20:33:45*
%MOMM*%
%LPD*%
G01*
G04 APERTURE LIST*
%ADD10O,1.727200X2.032000*%
%ADD11C,4.064000*%
%ADD12C,1.400000*%
%ADD13O,1.400000X1.400000*%
%ADD14R,1.000000X1.000000*%
%ADD15O,1.000000X1.000000*%
%ADD16R,1.222000X1.222000*%
%ADD17C,1.222000*%
G04 APERTURE END LIST*
D10*
X138938000Y-123825000D03*
X141478000Y-123825000D03*
X144018000Y-123825000D03*
X146558000Y-123825000D03*
X149098000Y-123825000D03*
X151638000Y-123825000D03*
X154178000Y-123825000D03*
X156718000Y-123825000D03*
X161798000Y-123825000D03*
X164338000Y-123825000D03*
X166878000Y-123825000D03*
X169418000Y-123825000D03*
X171958000Y-123825000D03*
X174498000Y-123825000D03*
X129794000Y-75565000D03*
X132334000Y-75565000D03*
X134874000Y-75565000D03*
X137414000Y-75565000D03*
X139954000Y-75565000D03*
X142494000Y-75565000D03*
X145034000Y-75565000D03*
X147574000Y-75565000D03*
X150114000Y-75565000D03*
X152654000Y-75565000D03*
X156718000Y-75565000D03*
X159258000Y-75565000D03*
X161798000Y-75565000D03*
X164338000Y-75565000D03*
X166878000Y-75565000D03*
X169418000Y-75565000D03*
X171958000Y-75565000D03*
X174498000Y-75565000D03*
D11*
X113538000Y-123825000D03*
X177038000Y-118745000D03*
X113538000Y-75565000D03*
X177038000Y-90805000D03*
D12*
X159258000Y-92075000D03*
D13*
X159258000Y-99695000D03*
D14*
X113563000Y-81925000D03*
D15*
X113563000Y-83195000D03*
X113563000Y-84465000D03*
X113563000Y-85735000D03*
X113563000Y-87005000D03*
X113563000Y-88275000D03*
X113563000Y-89545000D03*
D16*
X123698000Y-116205000D03*
D17*
X126238000Y-113665000D03*
X128778000Y-116205000D03*
D12*
X147828000Y-85725000D03*
D13*
X140208000Y-85725000D03*
D14*
X113538000Y-97155000D03*
D15*
X113538000Y-98425000D03*
X113538000Y-99695000D03*
D12*
X147828000Y-93345000D03*
D13*
X140208000Y-93345000D03*
D12*
X159258000Y-109855000D03*
D13*
X159258000Y-102235000D03*
D14*
X113538000Y-108585000D03*
D15*
X113538000Y-109855000D03*
M02*
