M48
; DRILL file {KiCad (6.0.4)} date Sun May  8 20:34:16 2022
; FORMAT={-:-/ absolute / metric / decimal}
; #@! TF.CreationDate,2022-05-08T20:34:16-07:00
; #@! TF.GenerationSoftware,Kicad,Pcbnew,(6.0.4)
; #@! TF.FileFunction,Plated,1,2,PTH
FMAT,2
METRIC
; #@! TA.AperFunction,Plated,PTH,ViaDrill
T1C0.400
; #@! TA.AperFunction,Plated,PTH,ComponentDrill
T2C0.700
; #@! TA.AperFunction,Plated,PTH,ComponentDrill
T3C0.714
; #@! TA.AperFunction,Plated,PTH,ComponentDrill
T4C1.016
; #@! TA.AperFunction,Plated,PTH,ComponentDrill
T5C3.048
%
G90
G05
T1
X146.558Y-113.665
X146.558Y-113.665
X151.638Y-118.745
X164.338Y-111.125
X164.338Y-111.125
X164.338Y-111.125
X169.418Y-108.585
X169.418Y-108.585
T2
X113.538Y-97.155
X113.538Y-98.425
X113.538Y-99.695
X113.538Y-108.585
X113.538Y-109.855
X113.563Y-81.925
X113.563Y-83.195
X113.563Y-84.465
X113.563Y-85.735
X113.563Y-87.005
X113.563Y-88.275
X113.563Y-89.545
X140.208Y-85.725
X140.208Y-93.345
X147.828Y-85.725
X147.828Y-93.345
X159.258Y-92.075
X159.258Y-99.695
X159.258Y-102.235
X159.258Y-109.855
T3
X123.698Y-116.205
X126.238Y-113.665
X128.778Y-116.205
T4
X129.794Y-75.565
X132.334Y-75.565
X134.874Y-75.565
X137.414Y-75.565
X138.938Y-123.825
X139.954Y-75.565
X141.478Y-123.825
X142.494Y-75.565
X144.018Y-123.825
X145.034Y-75.565
X146.558Y-123.825
X147.574Y-75.565
X149.098Y-123.825
X150.114Y-75.565
X151.638Y-123.825
X152.654Y-75.565
X154.178Y-123.825
X156.718Y-75.565
X156.718Y-123.825
X159.258Y-75.565
X161.798Y-75.565
X161.798Y-123.825
X164.338Y-75.565
X164.338Y-123.825
X166.878Y-75.565
X166.878Y-123.825
X169.418Y-75.565
X169.418Y-123.825
X171.958Y-75.565
X171.958Y-123.825
X174.498Y-75.565
X174.498Y-123.825
T5
X113.538Y-75.565
X113.538Y-123.825
X177.038Y-90.805
X177.038Y-118.745
T0
M30
