G04 #@! TF.GenerationSoftware,KiCad,Pcbnew,(6.0.4)*
G04 #@! TF.CreationDate,2022-05-08T20:33:45-07:00*
G04 #@! TF.ProjectId,PCB_Design,5043425f-4465-4736-9967-6e2e6b696361,rev?*
G04 #@! TF.SameCoordinates,Original*
G04 #@! TF.FileFunction,Copper,L1,Top*
G04 #@! TF.FilePolarity,Positive*
%FSLAX46Y46*%
G04 Gerber Fmt 4.6, Leading zero omitted, Abs format (unit mm)*
G04 Created by KiCad (PCBNEW (6.0.4)) date 2022-05-08 20:33:45*
%MOMM*%
%LPD*%
G01*
G04 APERTURE LIST*
G04 Aperture macros list*
%AMRoundRect*
0 Rectangle with rounded corners*
0 $1 Rounding radius*
0 $2 $3 $4 $5 $6 $7 $8 $9 X,Y pos of 4 corners*
0 Add a 4 corners polygon primitive as box body*
4,1,4,$2,$3,$4,$5,$6,$7,$8,$9,$2,$3,0*
0 Add four circle primitives for the rounded corners*
1,1,$1+$1,$2,$3*
1,1,$1+$1,$4,$5*
1,1,$1+$1,$6,$7*
1,1,$1+$1,$8,$9*
0 Add four rect primitives between the rounded corners*
20,1,$1+$1,$2,$3,$4,$5,0*
20,1,$1+$1,$4,$5,$6,$7,0*
20,1,$1+$1,$6,$7,$8,$9,0*
20,1,$1+$1,$8,$9,$2,$3,0*%
G04 Aperture macros list end*
G04 #@! TA.AperFunction,ComponentPad*
%ADD10O,1.727200X2.032000*%
G04 #@! TD*
G04 #@! TA.AperFunction,ComponentPad*
%ADD11C,4.064000*%
G04 #@! TD*
G04 #@! TA.AperFunction,SMDPad,CuDef*
%ADD12R,1.000000X1.700000*%
G04 #@! TD*
G04 #@! TA.AperFunction,ComponentPad*
%ADD13C,1.400000*%
G04 #@! TD*
G04 #@! TA.AperFunction,ComponentPad*
%ADD14O,1.400000X1.400000*%
G04 #@! TD*
G04 #@! TA.AperFunction,ComponentPad*
%ADD15R,1.000000X1.000000*%
G04 #@! TD*
G04 #@! TA.AperFunction,ComponentPad*
%ADD16O,1.000000X1.000000*%
G04 #@! TD*
G04 #@! TA.AperFunction,SMDPad,CuDef*
%ADD17R,1.000000X1.100000*%
G04 #@! TD*
G04 #@! TA.AperFunction,ComponentPad*
%ADD18R,1.222000X1.222000*%
G04 #@! TD*
G04 #@! TA.AperFunction,ComponentPad*
%ADD19C,1.222000*%
G04 #@! TD*
G04 #@! TA.AperFunction,SMDPad,CuDef*
%ADD20RoundRect,0.006600X-0.313400X-0.103400X0.313400X-0.103400X0.313400X0.103400X-0.313400X0.103400X0*%
G04 #@! TD*
G04 #@! TA.AperFunction,SMDPad,CuDef*
%ADD21RoundRect,0.006600X0.103400X-0.313400X0.103400X0.313400X-0.103400X0.313400X-0.103400X-0.313400X0*%
G04 #@! TD*
G04 #@! TA.AperFunction,SMDPad,CuDef*
%ADD22RoundRect,0.006600X0.313400X0.103400X-0.313400X0.103400X-0.313400X-0.103400X0.313400X-0.103400X0*%
G04 #@! TD*
G04 #@! TA.AperFunction,SMDPad,CuDef*
%ADD23RoundRect,0.006600X-0.103400X0.313400X-0.103400X-0.313400X0.103400X-0.313400X0.103400X0.313400X0*%
G04 #@! TD*
G04 #@! TA.AperFunction,ViaPad*
%ADD24C,0.600000*%
G04 #@! TD*
G04 #@! TA.AperFunction,Conductor*
%ADD25C,0.250000*%
G04 #@! TD*
G04 APERTURE END LIST*
D10*
X138938000Y-123825000D03*
X141478000Y-123825000D03*
X144018000Y-123825000D03*
X146558000Y-123825000D03*
X149098000Y-123825000D03*
X151638000Y-123825000D03*
X154178000Y-123825000D03*
X156718000Y-123825000D03*
X161798000Y-123825000D03*
X164338000Y-123825000D03*
X166878000Y-123825000D03*
X169418000Y-123825000D03*
X171958000Y-123825000D03*
X174498000Y-123825000D03*
X129794000Y-75565000D03*
X132334000Y-75565000D03*
X134874000Y-75565000D03*
X137414000Y-75565000D03*
X139954000Y-75565000D03*
X142494000Y-75565000D03*
X145034000Y-75565000D03*
X147574000Y-75565000D03*
X150114000Y-75565000D03*
X152654000Y-75565000D03*
X156718000Y-75565000D03*
X159258000Y-75565000D03*
X161798000Y-75565000D03*
X164338000Y-75565000D03*
X166878000Y-75565000D03*
X169418000Y-75565000D03*
X171958000Y-75565000D03*
X174498000Y-75565000D03*
D11*
X113538000Y-123825000D03*
X177038000Y-118745000D03*
X113538000Y-75565000D03*
X177038000Y-90805000D03*
D12*
X167518000Y-111735000D03*
X167518000Y-105435000D03*
X171318000Y-111735000D03*
X171318000Y-105435000D03*
D13*
X159258000Y-92075000D03*
D14*
X159258000Y-99695000D03*
D15*
X113563000Y-81925000D03*
D16*
X113563000Y-83195000D03*
X113563000Y-84465000D03*
X113563000Y-85735000D03*
X113563000Y-87005000D03*
X113563000Y-88275000D03*
X113563000Y-89545000D03*
D17*
X151638000Y-94195000D03*
X151638000Y-92495000D03*
D18*
X123698000Y-116205000D03*
D19*
X126238000Y-113665000D03*
X128778000Y-116205000D03*
D13*
X147828000Y-85725000D03*
D14*
X140208000Y-85725000D03*
D15*
X113538000Y-97155000D03*
D16*
X113538000Y-98425000D03*
X113538000Y-99695000D03*
D13*
X147828000Y-93345000D03*
D14*
X140208000Y-93345000D03*
D17*
X151638000Y-86575000D03*
X151638000Y-84875000D03*
D20*
X124693000Y-92490000D03*
X124693000Y-92890000D03*
X124693000Y-93290000D03*
X124693000Y-93690000D03*
X124693000Y-94090000D03*
X124693000Y-94490000D03*
D21*
X125238000Y-95035000D03*
X125638000Y-95035000D03*
X126038000Y-95035000D03*
X126438000Y-95035000D03*
X126838000Y-95035000D03*
X127238000Y-95035000D03*
D22*
X127783000Y-94490000D03*
X127783000Y-94090000D03*
X127783000Y-93690000D03*
X127783000Y-93290000D03*
X127783000Y-92890000D03*
X127783000Y-92490000D03*
D23*
X127238000Y-91945000D03*
X126838000Y-91945000D03*
X126438000Y-91945000D03*
X126038000Y-91945000D03*
X125638000Y-91945000D03*
X125238000Y-91945000D03*
D13*
X159258000Y-109855000D03*
D14*
X159258000Y-102235000D03*
D15*
X113538000Y-108585000D03*
D16*
X113538000Y-109855000D03*
D12*
X167518000Y-101575000D03*
X167518000Y-95275000D03*
X171318000Y-101575000D03*
X171318000Y-95275000D03*
D24*
X146558000Y-113665000D03*
X151638000Y-118745000D03*
X146558000Y-113665000D03*
X169418000Y-108585000D03*
X164338000Y-111125000D03*
X164338000Y-111125000D03*
X164338000Y-111125000D03*
X169418000Y-108585000D03*
D25*
X152160500Y-109332500D02*
X152160500Y-114187500D01*
X128778000Y-116205000D02*
X149098000Y-116205000D01*
X149098000Y-117250000D02*
X149098000Y-123825000D01*
X159258000Y-102235000D02*
X152273000Y-109220000D01*
X152160500Y-114187500D02*
X149098000Y-117250000D01*
X152160500Y-114187500D02*
X133858000Y-95885000D01*
X149098000Y-116205000D02*
X149098000Y-117250000D01*
X140394197Y-97341197D02*
X140394197Y-93794520D01*
X133858000Y-95885000D02*
X128778000Y-95885000D01*
X133858000Y-95885000D02*
X136398000Y-93345000D01*
X152273000Y-109220000D02*
X140394197Y-97341197D01*
X140208000Y-85725000D02*
X140208000Y-93345000D01*
X140394197Y-93794520D02*
X140525859Y-93662858D01*
X152273000Y-109220000D02*
X152160500Y-109332500D01*
X159258000Y-99695000D02*
X159258000Y-102235000D01*
X113563000Y-89545000D02*
X111197520Y-87179520D01*
X133858000Y-111125000D02*
X144018000Y-111125000D01*
X123698000Y-116205000D02*
X123698000Y-111125000D01*
X137414000Y-75565000D02*
X137414000Y-82824480D01*
X167518000Y-101575000D02*
X167518000Y-105435000D01*
X123498480Y-73224520D02*
X136198480Y-73224520D01*
X167518000Y-105435000D02*
X167518000Y-111735000D01*
X111197520Y-80645000D02*
X116078000Y-80645000D01*
X167518000Y-111735000D02*
X166268000Y-111735000D01*
X166268000Y-111735000D02*
X154178000Y-123825000D01*
X123698000Y-111125000D02*
X133858000Y-111125000D01*
X116078000Y-80645000D02*
X123498480Y-73224520D01*
X144018000Y-111125000D02*
X146558000Y-113665000D01*
X167518000Y-95275000D02*
X167518000Y-101575000D01*
X137414000Y-82824480D02*
X127783000Y-92455480D01*
X151638000Y-123825000D02*
X151638000Y-118745000D01*
X136198480Y-73224520D02*
X137414000Y-74440040D01*
X111197520Y-87179520D02*
X111197520Y-80645000D01*
X137414000Y-74440040D02*
X137414000Y-75565000D01*
X159457520Y-126165480D02*
X161798000Y-123825000D01*
X126238000Y-115536022D02*
X136867458Y-126165480D01*
X136867458Y-126165480D02*
X159457520Y-126165480D01*
X126238000Y-113665000D02*
X126238000Y-115536022D01*
X129301865Y-74224480D02*
X123698000Y-79828345D01*
X123698000Y-79828345D02*
X123698000Y-90805000D01*
X130993480Y-74224480D02*
X129301865Y-74224480D01*
X132334000Y-75565000D02*
X130993480Y-74224480D01*
X129794000Y-87249000D02*
X126238000Y-90805000D01*
X129794000Y-75565000D02*
X129794000Y-87249000D01*
X159258000Y-78955000D02*
X159258000Y-75565000D01*
X151638000Y-86575000D02*
X159258000Y-78955000D01*
X151638000Y-94195000D02*
X161798000Y-84035000D01*
X161798000Y-84035000D02*
X161798000Y-75565000D01*
X171318000Y-101575000D02*
X171318000Y-95275000D01*
X168118000Y-92075000D02*
X171318000Y-95275000D01*
X171318000Y-80005000D02*
X166878000Y-75565000D01*
X171318000Y-95275000D02*
X171318000Y-80005000D01*
X159258000Y-92075000D02*
X168118000Y-92075000D01*
X159258000Y-109855000D02*
X160528000Y-111125000D01*
X172874328Y-79021328D02*
X169418000Y-75565000D01*
X171318000Y-105435000D02*
X172874328Y-103878672D01*
X171318000Y-110485000D02*
X171318000Y-111735000D01*
X171318000Y-111735000D02*
X171318000Y-105435000D01*
X160528000Y-111125000D02*
X164338000Y-111125000D01*
X172874328Y-103878672D02*
X172874328Y-79021328D01*
X169418000Y-108585000D02*
X171318000Y-110485000D01*
X147828000Y-85725000D02*
X150788000Y-85725000D01*
X150788000Y-85725000D02*
X151638000Y-84875000D01*
X147828000Y-93345000D02*
X150788000Y-93345000D01*
X150788000Y-93345000D02*
X151638000Y-92495000D01*
X116078000Y-108585000D02*
X126238000Y-98425000D01*
X113538000Y-108585000D02*
X116078000Y-108585000D01*
X113538000Y-97155000D02*
X112713489Y-97979511D01*
X113220141Y-100647141D02*
X123380141Y-100647141D01*
X123380141Y-100647141D02*
X125920141Y-98107141D01*
X112713489Y-97979511D02*
X112713489Y-100140489D01*
X112713489Y-100140489D02*
X113220141Y-100647141D01*
X113538000Y-99695000D02*
X119888000Y-99695000D01*
X119888000Y-99695000D02*
X121158000Y-98425000D01*
X113563000Y-83195000D02*
X116078000Y-85710000D01*
X116078000Y-85725000D02*
X116977040Y-86624040D01*
X119253718Y-95885000D02*
X121158000Y-95885000D01*
X116977040Y-93608322D02*
X119253718Y-95885000D01*
X116977040Y-86624040D02*
X116977040Y-93608322D01*
X116078000Y-85710000D02*
X116078000Y-85725000D01*
X118618000Y-95885000D02*
X120522282Y-97789283D01*
X113563000Y-84465000D02*
X116527520Y-87429520D01*
X116527520Y-90805000D02*
X116527520Y-93794520D01*
X116527520Y-87429520D02*
X116527520Y-90805000D01*
X116527520Y-93794520D02*
X118618000Y-95885000D01*
X113563000Y-85735000D02*
X116078000Y-88250000D01*
X116078000Y-95885000D02*
X118618000Y-98425000D01*
X116078000Y-88250000D02*
X116078000Y-95885000D01*
X123248480Y-97975480D02*
X123698000Y-98425000D01*
X120840141Y-98107141D02*
X120971802Y-97975480D01*
X120522282Y-98425000D02*
X120840141Y-98107141D01*
X118618000Y-98425000D02*
X120522282Y-98425000D01*
X120971802Y-97975480D02*
X123248480Y-97975480D01*
M02*
