G04 #@! TF.GenerationSoftware,KiCad,Pcbnew,(6.0.4)*
G04 #@! TF.CreationDate,2022-05-08T20:33:45-07:00*
G04 #@! TF.ProjectId,PCB_Design,5043425f-4465-4736-9967-6e2e6b696361,rev?*
G04 #@! TF.SameCoordinates,Original*
G04 #@! TF.FileFunction,Copper,L2,Bot*
G04 #@! TF.FilePolarity,Positive*
%FSLAX46Y46*%
G04 Gerber Fmt 4.6, Leading zero omitted, Abs format (unit mm)*
G04 Created by KiCad (PCBNEW (6.0.4)) date 2022-05-08 20:33:45*
%MOMM*%
%LPD*%
G01*
G04 APERTURE LIST*
G04 #@! TA.AperFunction,ComponentPad*
%ADD10O,1.727200X2.032000*%
G04 #@! TD*
G04 #@! TA.AperFunction,ComponentPad*
%ADD11C,4.064000*%
G04 #@! TD*
G04 #@! TA.AperFunction,ComponentPad*
%ADD12C,1.400000*%
G04 #@! TD*
G04 #@! TA.AperFunction,ComponentPad*
%ADD13O,1.400000X1.400000*%
G04 #@! TD*
G04 #@! TA.AperFunction,ComponentPad*
%ADD14R,1.000000X1.000000*%
G04 #@! TD*
G04 #@! TA.AperFunction,ComponentPad*
%ADD15O,1.000000X1.000000*%
G04 #@! TD*
G04 #@! TA.AperFunction,ComponentPad*
%ADD16R,1.222000X1.222000*%
G04 #@! TD*
G04 #@! TA.AperFunction,ComponentPad*
%ADD17C,1.222000*%
G04 #@! TD*
G04 #@! TA.AperFunction,ViaPad*
%ADD18C,0.600000*%
G04 #@! TD*
G04 #@! TA.AperFunction,Conductor*
%ADD19C,0.250000*%
G04 #@! TD*
G04 APERTURE END LIST*
D10*
X138938000Y-123825000D03*
X141478000Y-123825000D03*
X144018000Y-123825000D03*
X146558000Y-123825000D03*
X149098000Y-123825000D03*
X151638000Y-123825000D03*
X154178000Y-123825000D03*
X156718000Y-123825000D03*
X161798000Y-123825000D03*
X164338000Y-123825000D03*
X166878000Y-123825000D03*
X169418000Y-123825000D03*
X171958000Y-123825000D03*
X174498000Y-123825000D03*
X129794000Y-75565000D03*
X132334000Y-75565000D03*
X134874000Y-75565000D03*
X137414000Y-75565000D03*
X139954000Y-75565000D03*
X142494000Y-75565000D03*
X145034000Y-75565000D03*
X147574000Y-75565000D03*
X150114000Y-75565000D03*
X152654000Y-75565000D03*
X156718000Y-75565000D03*
X159258000Y-75565000D03*
X161798000Y-75565000D03*
X164338000Y-75565000D03*
X166878000Y-75565000D03*
X169418000Y-75565000D03*
X171958000Y-75565000D03*
X174498000Y-75565000D03*
D11*
X113538000Y-123825000D03*
X177038000Y-118745000D03*
X113538000Y-75565000D03*
X177038000Y-90805000D03*
D12*
X159258000Y-92075000D03*
D13*
X159258000Y-99695000D03*
D14*
X113563000Y-81925000D03*
D15*
X113563000Y-83195000D03*
X113563000Y-84465000D03*
X113563000Y-85735000D03*
X113563000Y-87005000D03*
X113563000Y-88275000D03*
X113563000Y-89545000D03*
D16*
X123698000Y-116205000D03*
D17*
X126238000Y-113665000D03*
X128778000Y-116205000D03*
D12*
X147828000Y-85725000D03*
D13*
X140208000Y-85725000D03*
D14*
X113538000Y-97155000D03*
D15*
X113538000Y-98425000D03*
X113538000Y-99695000D03*
D12*
X147828000Y-93345000D03*
D13*
X140208000Y-93345000D03*
D12*
X159258000Y-109855000D03*
D13*
X159258000Y-102235000D03*
D14*
X113538000Y-108585000D03*
D15*
X113538000Y-109855000D03*
D18*
X146558000Y-113665000D03*
X151638000Y-118745000D03*
X146558000Y-113665000D03*
X169418000Y-108585000D03*
X164338000Y-111125000D03*
X164338000Y-111125000D03*
X164338000Y-111125000D03*
X169418000Y-108585000D03*
D19*
X113563000Y-81925000D02*
X124978000Y-81925000D01*
X124978000Y-81925000D02*
X136398000Y-93345000D01*
X146558000Y-113665000D02*
X151638000Y-118745000D01*
X171958000Y-123825000D02*
X159012511Y-110879511D01*
X159012511Y-110879511D02*
X151392511Y-110879511D01*
X132334000Y-81661000D02*
X132334000Y-75565000D01*
X138938000Y-88265000D02*
X132334000Y-81661000D01*
X151392511Y-110879511D02*
X138938000Y-98425000D01*
X138938000Y-98425000D02*
X138938000Y-88265000D01*
X154178000Y-73224520D02*
X132134480Y-73224520D01*
X174498000Y-123825000D02*
X174498000Y-93345000D01*
X154178000Y-78105000D02*
X154178000Y-73224520D01*
X159258000Y-78105000D02*
X154178000Y-78105000D01*
X174498000Y-93345000D02*
X159258000Y-78105000D01*
X132134480Y-73224520D02*
X129794000Y-75565000D01*
X166878000Y-108585000D02*
X169418000Y-108585000D01*
X164338000Y-111125000D02*
X166878000Y-108585000D01*
X128778000Y-95322106D02*
X128778000Y-93345000D01*
X113538000Y-109855000D02*
X114245106Y-109855000D01*
X114245106Y-109855000D02*
X128778000Y-95322106D01*
X113538000Y-98425000D02*
X113997520Y-98425000D01*
X113997520Y-98425000D02*
X123698000Y-88724520D01*
X124157520Y-88724520D02*
X126238000Y-90805000D01*
X123698000Y-88724520D02*
X124157520Y-88724520D01*
X124978000Y-87005000D02*
X128778000Y-90805000D01*
X113563000Y-87005000D02*
X124978000Y-87005000D01*
X113563000Y-88275000D02*
X125612282Y-88275000D01*
X125612282Y-88275000D02*
X125920141Y-88582859D01*
G04 #@! TA.AperFunction,Conductor*
G36*
X130693526Y-73553502D02*
G01*
X130740019Y-73607158D01*
X130750123Y-73677432D01*
X130720629Y-73742012D01*
X130714505Y-73748591D01*
X130533184Y-73929911D01*
X130376791Y-74086304D01*
X130314479Y-74120329D01*
X130250334Y-74117540D01*
X130089704Y-74067663D01*
X129965340Y-74051180D01*
X129864152Y-74037768D01*
X129864148Y-74037768D01*
X129858868Y-74037068D01*
X129853538Y-74037268D01*
X129853537Y-74037268D01*
X129742523Y-74041436D01*
X129626178Y-74045803D01*
X129543474Y-74063156D01*
X129403514Y-74092523D01*
X129403511Y-74092524D01*
X129398287Y-74093620D01*
X129181710Y-74179150D01*
X128982641Y-74299949D01*
X128978611Y-74303446D01*
X128884075Y-74385480D01*
X128806770Y-74452561D01*
X128803387Y-74456687D01*
X128803383Y-74456691D01*
X128730262Y-74545869D01*
X128659128Y-74632624D01*
X128656490Y-74637259D01*
X128656487Y-74637263D01*
X128560597Y-74805719D01*
X128543935Y-74834989D01*
X128542114Y-74840005D01*
X128542112Y-74840010D01*
X128500302Y-74955194D01*
X128464485Y-75053869D01*
X128423050Y-75283007D01*
X128421900Y-75307394D01*
X128421900Y-75775868D01*
X128436626Y-75949420D01*
X128437964Y-75954577D01*
X128437965Y-75954580D01*
X128470816Y-76081146D01*
X128495125Y-76174806D01*
X128497317Y-76179672D01*
X128497318Y-76179675D01*
X128505594Y-76198046D01*
X128590762Y-76387113D01*
X128720804Y-76580272D01*
X128881532Y-76748758D01*
X129068350Y-76887754D01*
X129073102Y-76890170D01*
X129270244Y-76990402D01*
X129275916Y-76993286D01*
X129387106Y-77027811D01*
X129493193Y-77060753D01*
X129493199Y-77060754D01*
X129498296Y-77062337D01*
X129622660Y-77078820D01*
X129723848Y-77092232D01*
X129723852Y-77092232D01*
X129729132Y-77092932D01*
X129734462Y-77092732D01*
X129734463Y-77092732D01*
X129845477Y-77088564D01*
X129961822Y-77084197D01*
X130066005Y-77062337D01*
X130184486Y-77037477D01*
X130184489Y-77037476D01*
X130189713Y-77036380D01*
X130406290Y-76950850D01*
X130605359Y-76830051D01*
X130609855Y-76826150D01*
X130777197Y-76680939D01*
X130777199Y-76680937D01*
X130781230Y-76677439D01*
X130784613Y-76673313D01*
X130784617Y-76673309D01*
X130883776Y-76552374D01*
X130928872Y-76497376D01*
X130954845Y-76451748D01*
X131005927Y-76402442D01*
X131075558Y-76388580D01*
X131141629Y-76414563D01*
X131168867Y-76443713D01*
X131260804Y-76580272D01*
X131421532Y-76748758D01*
X131608350Y-76887754D01*
X131631606Y-76899578D01*
X131683263Y-76948281D01*
X131700500Y-77011894D01*
X131700500Y-81582233D01*
X131699973Y-81593416D01*
X131698298Y-81600909D01*
X131698547Y-81608835D01*
X131698547Y-81608836D01*
X131700438Y-81668986D01*
X131700500Y-81672945D01*
X131700500Y-81700856D01*
X131700997Y-81704790D01*
X131700997Y-81704791D01*
X131701005Y-81704856D01*
X131701938Y-81716693D01*
X131703327Y-81760889D01*
X131708978Y-81780339D01*
X131712987Y-81799700D01*
X131715526Y-81819797D01*
X131718445Y-81827168D01*
X131718445Y-81827170D01*
X131731804Y-81860912D01*
X131735649Y-81872142D01*
X131747982Y-81914593D01*
X131752015Y-81921412D01*
X131752017Y-81921417D01*
X131758293Y-81932028D01*
X131766988Y-81949776D01*
X131774448Y-81968617D01*
X131779110Y-81975033D01*
X131779110Y-81975034D01*
X131800436Y-82004387D01*
X131806952Y-82014307D01*
X131829458Y-82052362D01*
X131843779Y-82066683D01*
X131856619Y-82081716D01*
X131868528Y-82098107D01*
X131874634Y-82103158D01*
X131902605Y-82126298D01*
X131911384Y-82134288D01*
X138267595Y-88490499D01*
X138301621Y-88552811D01*
X138304500Y-88579594D01*
X138304500Y-98346233D01*
X138303973Y-98357416D01*
X138302298Y-98364909D01*
X138302547Y-98372835D01*
X138302547Y-98372836D01*
X138304438Y-98432986D01*
X138304500Y-98436945D01*
X138304500Y-98464856D01*
X138304997Y-98468790D01*
X138304997Y-98468791D01*
X138305005Y-98468856D01*
X138305938Y-98480693D01*
X138307327Y-98524889D01*
X138312978Y-98544339D01*
X138316987Y-98563700D01*
X138319526Y-98583797D01*
X138322445Y-98591168D01*
X138322445Y-98591170D01*
X138335804Y-98624912D01*
X138339649Y-98636142D01*
X138342051Y-98644411D01*
X138351982Y-98678593D01*
X138356015Y-98685412D01*
X138356017Y-98685417D01*
X138362293Y-98696028D01*
X138370988Y-98713776D01*
X138378448Y-98732617D01*
X138383110Y-98739033D01*
X138383110Y-98739034D01*
X138404436Y-98768387D01*
X138410952Y-98778307D01*
X138433458Y-98816362D01*
X138447779Y-98830683D01*
X138460619Y-98845716D01*
X138472528Y-98862107D01*
X138478634Y-98867158D01*
X138506605Y-98890298D01*
X138515384Y-98898288D01*
X150888854Y-111271758D01*
X150896398Y-111280048D01*
X150900511Y-111286529D01*
X150906288Y-111291954D01*
X150950178Y-111333169D01*
X150953020Y-111335924D01*
X150972741Y-111355645D01*
X150975936Y-111358123D01*
X150984958Y-111365829D01*
X151017190Y-111396097D01*
X151024139Y-111399917D01*
X151034943Y-111405857D01*
X151051467Y-111416710D01*
X151067470Y-111429124D01*
X151108054Y-111446687D01*
X151118684Y-111451894D01*
X151157451Y-111473206D01*
X151165128Y-111475177D01*
X151165133Y-111475179D01*
X151177069Y-111478243D01*
X151195777Y-111484648D01*
X151214366Y-111492692D01*
X151222191Y-111493931D01*
X151222193Y-111493932D01*
X151258030Y-111499608D01*
X151269651Y-111502015D01*
X151304800Y-111511039D01*
X151312481Y-111513011D01*
X151332742Y-111513011D01*
X151352451Y-111514562D01*
X151372454Y-111517730D01*
X151380346Y-111516984D01*
X151385573Y-111516490D01*
X151416465Y-111513570D01*
X151428322Y-111513011D01*
X158697917Y-111513011D01*
X158766038Y-111533013D01*
X158787012Y-111549916D01*
X169328620Y-122091524D01*
X169362646Y-122153836D01*
X169357581Y-122224651D01*
X169315034Y-122281487D01*
X169255028Y-122305621D01*
X169250178Y-122305803D01*
X169140677Y-122328779D01*
X169027514Y-122352523D01*
X169027511Y-122352524D01*
X169022287Y-122353620D01*
X168805710Y-122439150D01*
X168606641Y-122559949D01*
X168602611Y-122563446D01*
X168508075Y-122645480D01*
X168430770Y-122712561D01*
X168427387Y-122716687D01*
X168427383Y-122716691D01*
X168354262Y-122805869D01*
X168283128Y-122892624D01*
X168280490Y-122897259D01*
X168280487Y-122897263D01*
X168257155Y-122938252D01*
X168206073Y-122987558D01*
X168136442Y-123001420D01*
X168070371Y-122975437D01*
X168043133Y-122946287D01*
X167954388Y-122814470D01*
X167951196Y-122809728D01*
X167790468Y-122641242D01*
X167603650Y-122502246D01*
X167476574Y-122437637D01*
X167400842Y-122399133D01*
X167400841Y-122399133D01*
X167396084Y-122396714D01*
X167257299Y-122353620D01*
X167178807Y-122329247D01*
X167178801Y-122329246D01*
X167173704Y-122327663D01*
X167049340Y-122311180D01*
X166948152Y-122297768D01*
X166948148Y-122297768D01*
X166942868Y-122297068D01*
X166937538Y-122297268D01*
X166937537Y-122297268D01*
X166826523Y-122301435D01*
X166710178Y-122305803D01*
X166704955Y-122306899D01*
X166487514Y-122352523D01*
X166487511Y-122352524D01*
X166482287Y-122353620D01*
X166265710Y-122439150D01*
X166066641Y-122559949D01*
X166062611Y-122563446D01*
X165968075Y-122645480D01*
X165890770Y-122712561D01*
X165887387Y-122716687D01*
X165887383Y-122716691D01*
X165814262Y-122805869D01*
X165743128Y-122892624D01*
X165740490Y-122897259D01*
X165740487Y-122897263D01*
X165717155Y-122938252D01*
X165666073Y-122987558D01*
X165596442Y-123001420D01*
X165530371Y-122975437D01*
X165503133Y-122946287D01*
X165414388Y-122814470D01*
X165411196Y-122809728D01*
X165250468Y-122641242D01*
X165063650Y-122502246D01*
X164936574Y-122437637D01*
X164860842Y-122399133D01*
X164860841Y-122399133D01*
X164856084Y-122396714D01*
X164717299Y-122353620D01*
X164638807Y-122329247D01*
X164638801Y-122329246D01*
X164633704Y-122327663D01*
X164509340Y-122311180D01*
X164408152Y-122297768D01*
X164408148Y-122297768D01*
X164402868Y-122297068D01*
X164397538Y-122297268D01*
X164397537Y-122297268D01*
X164286523Y-122301435D01*
X164170178Y-122305803D01*
X164164955Y-122306899D01*
X163947514Y-122352523D01*
X163947511Y-122352524D01*
X163942287Y-122353620D01*
X163725710Y-122439150D01*
X163526641Y-122559949D01*
X163522611Y-122563446D01*
X163428075Y-122645480D01*
X163350770Y-122712561D01*
X163347387Y-122716687D01*
X163347383Y-122716691D01*
X163274262Y-122805869D01*
X163203128Y-122892624D01*
X163200490Y-122897259D01*
X163200487Y-122897263D01*
X163177155Y-122938252D01*
X163126073Y-122987558D01*
X163056442Y-123001420D01*
X162990371Y-122975437D01*
X162963133Y-122946287D01*
X162874388Y-122814470D01*
X162871196Y-122809728D01*
X162710468Y-122641242D01*
X162523650Y-122502246D01*
X162396574Y-122437637D01*
X162320842Y-122399133D01*
X162320841Y-122399133D01*
X162316084Y-122396714D01*
X162177299Y-122353620D01*
X162098807Y-122329247D01*
X162098801Y-122329246D01*
X162093704Y-122327663D01*
X161969340Y-122311180D01*
X161868152Y-122297768D01*
X161868148Y-122297768D01*
X161862868Y-122297068D01*
X161857538Y-122297268D01*
X161857537Y-122297268D01*
X161746523Y-122301435D01*
X161630178Y-122305803D01*
X161624955Y-122306899D01*
X161407514Y-122352523D01*
X161407511Y-122352524D01*
X161402287Y-122353620D01*
X161185710Y-122439150D01*
X160986641Y-122559949D01*
X160982611Y-122563446D01*
X160888075Y-122645480D01*
X160810770Y-122712561D01*
X160807387Y-122716687D01*
X160807383Y-122716691D01*
X160734262Y-122805869D01*
X160663128Y-122892624D01*
X160660490Y-122897259D01*
X160660487Y-122897263D01*
X160597589Y-123007760D01*
X160547935Y-123094989D01*
X160546114Y-123100005D01*
X160546112Y-123100010D01*
X160504302Y-123215194D01*
X160468485Y-123313869D01*
X160427050Y-123543007D01*
X160426855Y-123547146D01*
X160426854Y-123547153D01*
X160425970Y-123565905D01*
X160425900Y-123567394D01*
X160425900Y-124035868D01*
X160440626Y-124209420D01*
X160441964Y-124214577D01*
X160441965Y-124214580D01*
X160474816Y-124341146D01*
X160499125Y-124434806D01*
X160501317Y-124439672D01*
X160501318Y-124439675D01*
X160509594Y-124458046D01*
X160594762Y-124647113D01*
X160724804Y-124840272D01*
X160885532Y-125008758D01*
X161072350Y-125147754D01*
X161077102Y-125150170D01*
X161274244Y-125250402D01*
X161279916Y-125253286D01*
X161391106Y-125287812D01*
X161497193Y-125320753D01*
X161497199Y-125320754D01*
X161502296Y-125322337D01*
X161626660Y-125338820D01*
X161727848Y-125352232D01*
X161727852Y-125352232D01*
X161733132Y-125352932D01*
X161738462Y-125352732D01*
X161738463Y-125352732D01*
X161849477Y-125348564D01*
X161965822Y-125344197D01*
X162070005Y-125322337D01*
X162188486Y-125297477D01*
X162188489Y-125297476D01*
X162193713Y-125296380D01*
X162410290Y-125210850D01*
X162609359Y-125090051D01*
X162613855Y-125086150D01*
X162781197Y-124940939D01*
X162781199Y-124940937D01*
X162785230Y-124937439D01*
X162788613Y-124933313D01*
X162788617Y-124933309D01*
X162887776Y-124812374D01*
X162932872Y-124757376D01*
X162935672Y-124752458D01*
X162958845Y-124711748D01*
X163009927Y-124662442D01*
X163079558Y-124648580D01*
X163145629Y-124674563D01*
X163172867Y-124703713D01*
X163264804Y-124840272D01*
X163425532Y-125008758D01*
X163612350Y-125147754D01*
X163617102Y-125150170D01*
X163814244Y-125250402D01*
X163819916Y-125253286D01*
X163931106Y-125287812D01*
X164037193Y-125320753D01*
X164037199Y-125320754D01*
X164042296Y-125322337D01*
X164166660Y-125338820D01*
X164267848Y-125352232D01*
X164267852Y-125352232D01*
X164273132Y-125352932D01*
X164278462Y-125352732D01*
X164278463Y-125352732D01*
X164389477Y-125348564D01*
X164505822Y-125344197D01*
X164610005Y-125322337D01*
X164728486Y-125297477D01*
X164728489Y-125297476D01*
X164733713Y-125296380D01*
X164950290Y-125210850D01*
X165149359Y-125090051D01*
X165153855Y-125086150D01*
X165321197Y-124940939D01*
X165321199Y-124940937D01*
X165325230Y-124937439D01*
X165328613Y-124933313D01*
X165328617Y-124933309D01*
X165427776Y-124812374D01*
X165472872Y-124757376D01*
X165475672Y-124752458D01*
X165498845Y-124711748D01*
X165549927Y-124662442D01*
X165619558Y-124648580D01*
X165685629Y-124674563D01*
X165712867Y-124703713D01*
X165804804Y-124840272D01*
X165965532Y-125008758D01*
X166152350Y-125147754D01*
X166157102Y-125150170D01*
X166354244Y-125250402D01*
X166359916Y-125253286D01*
X166471106Y-125287812D01*
X166577193Y-125320753D01*
X166577199Y-125320754D01*
X166582296Y-125322337D01*
X166706660Y-125338820D01*
X166807848Y-125352232D01*
X166807852Y-125352232D01*
X166813132Y-125352932D01*
X166818462Y-125352732D01*
X166818463Y-125352732D01*
X166929477Y-125348564D01*
X167045822Y-125344197D01*
X167150005Y-125322337D01*
X167268486Y-125297477D01*
X167268489Y-125297476D01*
X167273713Y-125296380D01*
X167490290Y-125210850D01*
X167689359Y-125090051D01*
X167693855Y-125086150D01*
X167861197Y-124940939D01*
X167861199Y-124940937D01*
X167865230Y-124937439D01*
X167868613Y-124933313D01*
X167868617Y-124933309D01*
X167967776Y-124812374D01*
X168012872Y-124757376D01*
X168015672Y-124752458D01*
X168038845Y-124711748D01*
X168089927Y-124662442D01*
X168159558Y-124648580D01*
X168225629Y-124674563D01*
X168252867Y-124703713D01*
X168344804Y-124840272D01*
X168505532Y-125008758D01*
X168692350Y-125147754D01*
X168697102Y-125150170D01*
X168894244Y-125250402D01*
X168899916Y-125253286D01*
X169011106Y-125287812D01*
X169117193Y-125320753D01*
X169117199Y-125320754D01*
X169122296Y-125322337D01*
X169246660Y-125338820D01*
X169347848Y-125352232D01*
X169347852Y-125352232D01*
X169353132Y-125352932D01*
X169358462Y-125352732D01*
X169358463Y-125352732D01*
X169469477Y-125348564D01*
X169585822Y-125344197D01*
X169690005Y-125322337D01*
X169808486Y-125297477D01*
X169808489Y-125297476D01*
X169813713Y-125296380D01*
X170030290Y-125210850D01*
X170229359Y-125090051D01*
X170233855Y-125086150D01*
X170401197Y-124940939D01*
X170401199Y-124940937D01*
X170405230Y-124937439D01*
X170408613Y-124933313D01*
X170408617Y-124933309D01*
X170507776Y-124812374D01*
X170552872Y-124757376D01*
X170555672Y-124752458D01*
X170578845Y-124711748D01*
X170629927Y-124662442D01*
X170699558Y-124648580D01*
X170765629Y-124674563D01*
X170792867Y-124703713D01*
X170884804Y-124840272D01*
X171045532Y-125008758D01*
X171232350Y-125147754D01*
X171237102Y-125150170D01*
X171434244Y-125250402D01*
X171439916Y-125253286D01*
X171551106Y-125287812D01*
X171657193Y-125320753D01*
X171657199Y-125320754D01*
X171662296Y-125322337D01*
X171786660Y-125338820D01*
X171887848Y-125352232D01*
X171887852Y-125352232D01*
X171893132Y-125352932D01*
X171898462Y-125352732D01*
X171898463Y-125352732D01*
X172009477Y-125348564D01*
X172125822Y-125344197D01*
X172230005Y-125322337D01*
X172348486Y-125297477D01*
X172348489Y-125297476D01*
X172353713Y-125296380D01*
X172570290Y-125210850D01*
X172769359Y-125090051D01*
X172773855Y-125086150D01*
X172941197Y-124940939D01*
X172941199Y-124940937D01*
X172945230Y-124937439D01*
X172948613Y-124933313D01*
X172948617Y-124933309D01*
X173047776Y-124812374D01*
X173092872Y-124757376D01*
X173095672Y-124752458D01*
X173118845Y-124711748D01*
X173169927Y-124662442D01*
X173239558Y-124648580D01*
X173305629Y-124674563D01*
X173332867Y-124703713D01*
X173424804Y-124840272D01*
X173585532Y-125008758D01*
X173772350Y-125147754D01*
X173777102Y-125150170D01*
X173974244Y-125250402D01*
X173979916Y-125253286D01*
X174091106Y-125287812D01*
X174197193Y-125320753D01*
X174197199Y-125320754D01*
X174202296Y-125322337D01*
X174326660Y-125338820D01*
X174427848Y-125352232D01*
X174427852Y-125352232D01*
X174433132Y-125352932D01*
X174438462Y-125352732D01*
X174438463Y-125352732D01*
X174549477Y-125348564D01*
X174665822Y-125344197D01*
X174770005Y-125322337D01*
X174888486Y-125297477D01*
X174888489Y-125297476D01*
X174893713Y-125296380D01*
X175110290Y-125210850D01*
X175309359Y-125090051D01*
X175313855Y-125086150D01*
X175481197Y-124940939D01*
X175481199Y-124940937D01*
X175485230Y-124937439D01*
X175488613Y-124933313D01*
X175488617Y-124933309D01*
X175587776Y-124812374D01*
X175632872Y-124757376D01*
X175635672Y-124752458D01*
X175745422Y-124559654D01*
X175748065Y-124555011D01*
X175768239Y-124499435D01*
X175825695Y-124341146D01*
X175825696Y-124341142D01*
X175827515Y-124336131D01*
X175868950Y-124106993D01*
X175869632Y-124092548D01*
X175870030Y-124084095D01*
X175870030Y-124084086D01*
X175870100Y-124082606D01*
X175870100Y-123614132D01*
X175861258Y-123509924D01*
X175855825Y-123445891D01*
X175855824Y-123445887D01*
X175855374Y-123440580D01*
X175848781Y-123415177D01*
X175798217Y-123220363D01*
X175798216Y-123220359D01*
X175796875Y-123215194D01*
X175788164Y-123195855D01*
X175703433Y-123007760D01*
X175701238Y-123002887D01*
X175571196Y-122809728D01*
X175410468Y-122641242D01*
X175223650Y-122502246D01*
X175200394Y-122490422D01*
X175148737Y-122441719D01*
X175131500Y-122378106D01*
X175131500Y-120730906D01*
X175151502Y-120662785D01*
X175205158Y-120616292D01*
X175275432Y-120606188D01*
X175343752Y-120639056D01*
X175415423Y-120706359D01*
X175674041Y-120894256D01*
X175954169Y-121048258D01*
X176020126Y-121074372D01*
X176247707Y-121164478D01*
X176247710Y-121164479D01*
X176251390Y-121165936D01*
X176255224Y-121166920D01*
X176255232Y-121166923D01*
X176447153Y-121216200D01*
X176561017Y-121245435D01*
X176564945Y-121245931D01*
X176564949Y-121245932D01*
X176690642Y-121261810D01*
X176878165Y-121285500D01*
X177197835Y-121285500D01*
X177385358Y-121261810D01*
X177511051Y-121245932D01*
X177511055Y-121245931D01*
X177514983Y-121245435D01*
X177628847Y-121216200D01*
X177820768Y-121166923D01*
X177820776Y-121166920D01*
X177824610Y-121165936D01*
X177828290Y-121164479D01*
X177828293Y-121164478D01*
X178055874Y-121074372D01*
X178121831Y-121048258D01*
X178401959Y-120894256D01*
X178660577Y-120706359D01*
X178857248Y-120521673D01*
X178920597Y-120489622D01*
X178991219Y-120496909D01*
X179046690Y-120541219D01*
X179069500Y-120613523D01*
X179069500Y-121022182D01*
X179049498Y-121090303D01*
X179032595Y-121111277D01*
X176728696Y-123415177D01*
X176719156Y-123422800D01*
X176719470Y-123423168D01*
X176712634Y-123428986D01*
X176705042Y-123433776D01*
X176699100Y-123440504D01*
X176669407Y-123474125D01*
X176664061Y-123479812D01*
X176652618Y-123491255D01*
X176646978Y-123498780D01*
X176646341Y-123499630D01*
X176639967Y-123507459D01*
X176608622Y-123542951D01*
X176604808Y-123551074D01*
X176603174Y-123553562D01*
X176594186Y-123568523D01*
X176592771Y-123571108D01*
X176587384Y-123578295D01*
X176584233Y-123586701D01*
X176570759Y-123622642D01*
X176566833Y-123631958D01*
X176546719Y-123674800D01*
X176545338Y-123683669D01*
X176544472Y-123686502D01*
X176540042Y-123703389D01*
X176539408Y-123706274D01*
X176536255Y-123714684D01*
X176535590Y-123723639D01*
X176532746Y-123761906D01*
X176531592Y-123771952D01*
X176529500Y-123785386D01*
X176529500Y-123800906D01*
X176529154Y-123810243D01*
X176525461Y-123859941D01*
X176527335Y-123868720D01*
X176527898Y-123876978D01*
X176529500Y-123892161D01*
X176529500Y-125730500D01*
X176509498Y-125798621D01*
X176455842Y-125845114D01*
X176403500Y-125856500D01*
X115404124Y-125856500D01*
X115336003Y-125836498D01*
X115289510Y-125782842D01*
X115279406Y-125712568D01*
X115308900Y-125647988D01*
X115317871Y-125638650D01*
X115390715Y-125570245D01*
X115390716Y-125570244D01*
X115393606Y-125567530D01*
X115597371Y-125321221D01*
X115606087Y-125307488D01*
X115766535Y-125054662D01*
X115766535Y-125054661D01*
X115768659Y-125051315D01*
X115770343Y-125047736D01*
X115770347Y-125047729D01*
X115903078Y-124765660D01*
X115903080Y-124765656D01*
X115904767Y-124762070D01*
X115907800Y-124752737D01*
X116002324Y-124461822D01*
X116003551Y-124458046D01*
X116063451Y-124144039D01*
X116070256Y-124035868D01*
X137565900Y-124035868D01*
X137580626Y-124209420D01*
X137581964Y-124214577D01*
X137581965Y-124214580D01*
X137614816Y-124341146D01*
X137639125Y-124434806D01*
X137641317Y-124439672D01*
X137641318Y-124439675D01*
X137649594Y-124458046D01*
X137734762Y-124647113D01*
X137864804Y-124840272D01*
X138025532Y-125008758D01*
X138212350Y-125147754D01*
X138217102Y-125150170D01*
X138414244Y-125250402D01*
X138419916Y-125253286D01*
X138531106Y-125287812D01*
X138637193Y-125320753D01*
X138637199Y-125320754D01*
X138642296Y-125322337D01*
X138766660Y-125338820D01*
X138867848Y-125352232D01*
X138867852Y-125352232D01*
X138873132Y-125352932D01*
X138878462Y-125352732D01*
X138878463Y-125352732D01*
X138989477Y-125348564D01*
X139105822Y-125344197D01*
X139210005Y-125322337D01*
X139328486Y-125297477D01*
X139328489Y-125297476D01*
X139333713Y-125296380D01*
X139550290Y-125210850D01*
X139749359Y-125090051D01*
X139753855Y-125086150D01*
X139921197Y-124940939D01*
X139921199Y-124940937D01*
X139925230Y-124937439D01*
X139928613Y-124933313D01*
X139928617Y-124933309D01*
X140027776Y-124812374D01*
X140072872Y-124757376D01*
X140075672Y-124752458D01*
X140098845Y-124711748D01*
X140149927Y-124662442D01*
X140219558Y-124648580D01*
X140285629Y-124674563D01*
X140312867Y-124703713D01*
X140404804Y-124840272D01*
X140565532Y-125008758D01*
X140752350Y-125147754D01*
X140757102Y-125150170D01*
X140954244Y-125250402D01*
X140959916Y-125253286D01*
X141071106Y-125287812D01*
X141177193Y-125320753D01*
X141177199Y-125320754D01*
X141182296Y-125322337D01*
X141306660Y-125338820D01*
X141407848Y-125352232D01*
X141407852Y-125352232D01*
X141413132Y-125352932D01*
X141418462Y-125352732D01*
X141418463Y-125352732D01*
X141529477Y-125348564D01*
X141645822Y-125344197D01*
X141750005Y-125322337D01*
X141868486Y-125297477D01*
X141868489Y-125297476D01*
X141873713Y-125296380D01*
X142090290Y-125210850D01*
X142289359Y-125090051D01*
X142293855Y-125086150D01*
X142461197Y-124940939D01*
X142461199Y-124940937D01*
X142465230Y-124937439D01*
X142468613Y-124933313D01*
X142468617Y-124933309D01*
X142567776Y-124812374D01*
X142612872Y-124757376D01*
X142615672Y-124752458D01*
X142638845Y-124711748D01*
X142689927Y-124662442D01*
X142759558Y-124648580D01*
X142825629Y-124674563D01*
X142852867Y-124703713D01*
X142944804Y-124840272D01*
X143105532Y-125008758D01*
X143292350Y-125147754D01*
X143297102Y-125150170D01*
X143494244Y-125250402D01*
X143499916Y-125253286D01*
X143611106Y-125287812D01*
X143717193Y-125320753D01*
X143717199Y-125320754D01*
X143722296Y-125322337D01*
X143846660Y-125338820D01*
X143947848Y-125352232D01*
X143947852Y-125352232D01*
X143953132Y-125352932D01*
X143958462Y-125352732D01*
X143958463Y-125352732D01*
X144069477Y-125348564D01*
X144185822Y-125344197D01*
X144290005Y-125322337D01*
X144408486Y-125297477D01*
X144408489Y-125297476D01*
X144413713Y-125296380D01*
X144630290Y-125210850D01*
X144829359Y-125090051D01*
X144833855Y-125086150D01*
X145001197Y-124940939D01*
X145001199Y-124940937D01*
X145005230Y-124937439D01*
X145008613Y-124933313D01*
X145008617Y-124933309D01*
X145107776Y-124812374D01*
X145152872Y-124757376D01*
X145155672Y-124752458D01*
X145178845Y-124711748D01*
X145229927Y-124662442D01*
X145299558Y-124648580D01*
X145365629Y-124674563D01*
X145392867Y-124703713D01*
X145484804Y-124840272D01*
X145645532Y-125008758D01*
X145832350Y-125147754D01*
X145837102Y-125150170D01*
X146034244Y-125250402D01*
X146039916Y-125253286D01*
X146151106Y-125287812D01*
X146257193Y-125320753D01*
X146257199Y-125320754D01*
X146262296Y-125322337D01*
X146386660Y-125338820D01*
X146487848Y-125352232D01*
X146487852Y-125352232D01*
X146493132Y-125352932D01*
X146498462Y-125352732D01*
X146498463Y-125352732D01*
X146609477Y-125348564D01*
X146725822Y-125344197D01*
X146830005Y-125322337D01*
X146948486Y-125297477D01*
X146948489Y-125297476D01*
X146953713Y-125296380D01*
X147170290Y-125210850D01*
X147369359Y-125090051D01*
X147373855Y-125086150D01*
X147541197Y-124940939D01*
X147541199Y-124940937D01*
X147545230Y-124937439D01*
X147548613Y-124933313D01*
X147548617Y-124933309D01*
X147647776Y-124812374D01*
X147692872Y-124757376D01*
X147695672Y-124752458D01*
X147718845Y-124711748D01*
X147769927Y-124662442D01*
X147839558Y-124648580D01*
X147905629Y-124674563D01*
X147932867Y-124703713D01*
X148024804Y-124840272D01*
X148185532Y-125008758D01*
X148372350Y-125147754D01*
X148377102Y-125150170D01*
X148574244Y-125250402D01*
X148579916Y-125253286D01*
X148691106Y-125287812D01*
X148797193Y-125320753D01*
X148797199Y-125320754D01*
X148802296Y-125322337D01*
X148926660Y-125338820D01*
X149027848Y-125352232D01*
X149027852Y-125352232D01*
X149033132Y-125352932D01*
X149038462Y-125352732D01*
X149038463Y-125352732D01*
X149149477Y-125348564D01*
X149265822Y-125344197D01*
X149370005Y-125322337D01*
X149488486Y-125297477D01*
X149488489Y-125297476D01*
X149493713Y-125296380D01*
X149710290Y-125210850D01*
X149909359Y-125090051D01*
X149913855Y-125086150D01*
X150081197Y-124940939D01*
X150081199Y-124940937D01*
X150085230Y-124937439D01*
X150088613Y-124933313D01*
X150088617Y-124933309D01*
X150187776Y-124812374D01*
X150232872Y-124757376D01*
X150259122Y-124711261D01*
X150310202Y-124661956D01*
X150379832Y-124648094D01*
X150445904Y-124674077D01*
X150473143Y-124703227D01*
X150562215Y-124835530D01*
X150568876Y-124843816D01*
X150722180Y-125004520D01*
X150730148Y-125011569D01*
X150908336Y-125144144D01*
X150917366Y-125149743D01*
X151115347Y-125250402D01*
X151125208Y-125254405D01*
X151337301Y-125320263D01*
X151347696Y-125322548D01*
X151366041Y-125324980D01*
X151380208Y-125322783D01*
X151384000Y-125309599D01*
X151384000Y-125307488D01*
X151892000Y-125307488D01*
X151895973Y-125321019D01*
X151906580Y-125322544D01*
X152028343Y-125296996D01*
X152038539Y-125293936D01*
X152245097Y-125212363D01*
X152254634Y-125207629D01*
X152444503Y-125092414D01*
X152453093Y-125086150D01*
X152620837Y-124940589D01*
X152628257Y-124932959D01*
X152769073Y-124761220D01*
X152775095Y-124752458D01*
X152798810Y-124710798D01*
X152849893Y-124661492D01*
X152919524Y-124647631D01*
X152985594Y-124673615D01*
X153012832Y-124702764D01*
X153102215Y-124835531D01*
X153108876Y-124843816D01*
X153262180Y-125004520D01*
X153270148Y-125011569D01*
X153448336Y-125144144D01*
X153457366Y-125149743D01*
X153655347Y-125250402D01*
X153665208Y-125254405D01*
X153877301Y-125320263D01*
X153887696Y-125322548D01*
X153906041Y-125324980D01*
X153920208Y-125322783D01*
X153924000Y-125309599D01*
X153924000Y-125307488D01*
X154432000Y-125307488D01*
X154435973Y-125321019D01*
X154446580Y-125322544D01*
X154568343Y-125296996D01*
X154578539Y-125293936D01*
X154785097Y-125212363D01*
X154794634Y-125207629D01*
X154984503Y-125092414D01*
X154993093Y-125086150D01*
X155160837Y-124940589D01*
X155168257Y-124932959D01*
X155309073Y-124761220D01*
X155315102Y-124752449D01*
X155338533Y-124711285D01*
X155389615Y-124661978D01*
X155459245Y-124648116D01*
X155525316Y-124674099D01*
X155552555Y-124703249D01*
X155644804Y-124840272D01*
X155805532Y-125008758D01*
X155992350Y-125147754D01*
X155997102Y-125150170D01*
X156194244Y-125250402D01*
X156199916Y-125253286D01*
X156311106Y-125287812D01*
X156417193Y-125320753D01*
X156417199Y-125320754D01*
X156422296Y-125322337D01*
X156546660Y-125338820D01*
X156647848Y-125352232D01*
X156647852Y-125352232D01*
X156653132Y-125352932D01*
X156658462Y-125352732D01*
X156658463Y-125352732D01*
X156769477Y-125348564D01*
X156885822Y-125344197D01*
X156990005Y-125322337D01*
X157108486Y-125297477D01*
X157108489Y-125297476D01*
X157113713Y-125296380D01*
X157330290Y-125210850D01*
X157529359Y-125090051D01*
X157533855Y-125086150D01*
X157701197Y-124940939D01*
X157701199Y-124940937D01*
X157705230Y-124937439D01*
X157708613Y-124933313D01*
X157708617Y-124933309D01*
X157807776Y-124812374D01*
X157852872Y-124757376D01*
X157855672Y-124752458D01*
X157965422Y-124559654D01*
X157968065Y-124555011D01*
X157988239Y-124499435D01*
X158045695Y-124341146D01*
X158045696Y-124341142D01*
X158047515Y-124336131D01*
X158088950Y-124106993D01*
X158089632Y-124092548D01*
X158090030Y-124084095D01*
X158090030Y-124084086D01*
X158090100Y-124082606D01*
X158090100Y-123614132D01*
X158081258Y-123509924D01*
X158075825Y-123445891D01*
X158075824Y-123445887D01*
X158075374Y-123440580D01*
X158068781Y-123415177D01*
X158018217Y-123220363D01*
X158018216Y-123220359D01*
X158016875Y-123215194D01*
X158008164Y-123195855D01*
X157923433Y-123007760D01*
X157921238Y-123002887D01*
X157791196Y-122809728D01*
X157630468Y-122641242D01*
X157443650Y-122502246D01*
X157316574Y-122437637D01*
X157240842Y-122399133D01*
X157240841Y-122399133D01*
X157236084Y-122396714D01*
X157097299Y-122353620D01*
X157018807Y-122329247D01*
X157018801Y-122329246D01*
X157013704Y-122327663D01*
X156889340Y-122311180D01*
X156788152Y-122297768D01*
X156788148Y-122297768D01*
X156782868Y-122297068D01*
X156777538Y-122297268D01*
X156777537Y-122297268D01*
X156666523Y-122301435D01*
X156550178Y-122305803D01*
X156544955Y-122306899D01*
X156327514Y-122352523D01*
X156327511Y-122352524D01*
X156322287Y-122353620D01*
X156105710Y-122439150D01*
X155906641Y-122559949D01*
X155902611Y-122563446D01*
X155808075Y-122645480D01*
X155730770Y-122712561D01*
X155727387Y-122716687D01*
X155727383Y-122716691D01*
X155654262Y-122805869D01*
X155583128Y-122892624D01*
X155556878Y-122938739D01*
X155505798Y-122988044D01*
X155436168Y-123001906D01*
X155370096Y-122975923D01*
X155342857Y-122946773D01*
X155253785Y-122814470D01*
X155247124Y-122806184D01*
X155093820Y-122645480D01*
X155085852Y-122638431D01*
X154907664Y-122505856D01*
X154898634Y-122500257D01*
X154700653Y-122399598D01*
X154690792Y-122395595D01*
X154478699Y-122329737D01*
X154468304Y-122327452D01*
X154449959Y-122325020D01*
X154435792Y-122327217D01*
X154432000Y-122340401D01*
X154432000Y-125307488D01*
X153924000Y-125307488D01*
X153924000Y-124097115D01*
X153919525Y-124081876D01*
X153918135Y-124080671D01*
X153910452Y-124079000D01*
X151910115Y-124079000D01*
X151894876Y-124083475D01*
X151893671Y-124084865D01*
X151892000Y-124092548D01*
X151892000Y-125307488D01*
X151384000Y-125307488D01*
X151384000Y-123552885D01*
X151892000Y-123552885D01*
X151896475Y-123568124D01*
X151897865Y-123569329D01*
X151905548Y-123571000D01*
X153905885Y-123571000D01*
X153921124Y-123566525D01*
X153922329Y-123565135D01*
X153924000Y-123557452D01*
X153924000Y-122342512D01*
X153920027Y-122328981D01*
X153909420Y-122327456D01*
X153787657Y-122353004D01*
X153777461Y-122356064D01*
X153570903Y-122437637D01*
X153561366Y-122442371D01*
X153371497Y-122557586D01*
X153362907Y-122563850D01*
X153195163Y-122709411D01*
X153187743Y-122717041D01*
X153046927Y-122888780D01*
X153040905Y-122897542D01*
X153017190Y-122939202D01*
X152966107Y-122988508D01*
X152896476Y-123002369D01*
X152830406Y-122976385D01*
X152803168Y-122947236D01*
X152713785Y-122814469D01*
X152707124Y-122806184D01*
X152553820Y-122645480D01*
X152545852Y-122638431D01*
X152367664Y-122505856D01*
X152358634Y-122500257D01*
X152160653Y-122399598D01*
X152150792Y-122395595D01*
X151938699Y-122329737D01*
X151928304Y-122327452D01*
X151909959Y-122325020D01*
X151895792Y-122327217D01*
X151892000Y-122340401D01*
X151892000Y-123552885D01*
X151384000Y-123552885D01*
X151384000Y-122342512D01*
X151380027Y-122328981D01*
X151369420Y-122327456D01*
X151247657Y-122353004D01*
X151237461Y-122356064D01*
X151030903Y-122437637D01*
X151021366Y-122442371D01*
X150831497Y-122557586D01*
X150822907Y-122563850D01*
X150655163Y-122709411D01*
X150647743Y-122717041D01*
X150506927Y-122888780D01*
X150500898Y-122897551D01*
X150477467Y-122938715D01*
X150426385Y-122988022D01*
X150356755Y-123001884D01*
X150290684Y-122975901D01*
X150263445Y-122946751D01*
X150227005Y-122892624D01*
X150171196Y-122809728D01*
X150010468Y-122641242D01*
X149823650Y-122502246D01*
X149696574Y-122437637D01*
X149620842Y-122399133D01*
X149620841Y-122399133D01*
X149616084Y-122396714D01*
X149477299Y-122353620D01*
X149398807Y-122329247D01*
X149398801Y-122329246D01*
X149393704Y-122327663D01*
X149269340Y-122311180D01*
X149168152Y-122297768D01*
X149168148Y-122297768D01*
X149162868Y-122297068D01*
X149157538Y-122297268D01*
X149157537Y-122297268D01*
X149046523Y-122301435D01*
X148930178Y-122305803D01*
X148924955Y-122306899D01*
X148707514Y-122352523D01*
X148707511Y-122352524D01*
X148702287Y-122353620D01*
X148485710Y-122439150D01*
X148286641Y-122559949D01*
X148282611Y-122563446D01*
X148188075Y-122645480D01*
X148110770Y-122712561D01*
X148107387Y-122716687D01*
X148107383Y-122716691D01*
X148034262Y-122805869D01*
X147963128Y-122892624D01*
X147960490Y-122897259D01*
X147960487Y-122897263D01*
X147937155Y-122938252D01*
X147886073Y-122987558D01*
X147816442Y-123001420D01*
X147750371Y-122975437D01*
X147723133Y-122946287D01*
X147634388Y-122814470D01*
X147631196Y-122809728D01*
X147470468Y-122641242D01*
X147283650Y-122502246D01*
X147156574Y-122437637D01*
X147080842Y-122399133D01*
X147080841Y-122399133D01*
X147076084Y-122396714D01*
X146937299Y-122353620D01*
X146858807Y-122329247D01*
X146858801Y-122329246D01*
X146853704Y-122327663D01*
X146729340Y-122311180D01*
X146628152Y-122297768D01*
X146628148Y-122297768D01*
X146622868Y-122297068D01*
X146617538Y-122297268D01*
X146617537Y-122297268D01*
X146506523Y-122301435D01*
X146390178Y-122305803D01*
X146384955Y-122306899D01*
X146167514Y-122352523D01*
X146167511Y-122352524D01*
X146162287Y-122353620D01*
X145945710Y-122439150D01*
X145746641Y-122559949D01*
X145742611Y-122563446D01*
X145648075Y-122645480D01*
X145570770Y-122712561D01*
X145567387Y-122716687D01*
X145567383Y-122716691D01*
X145494262Y-122805869D01*
X145423128Y-122892624D01*
X145420490Y-122897259D01*
X145420487Y-122897263D01*
X145397155Y-122938252D01*
X145346073Y-122987558D01*
X145276442Y-123001420D01*
X145210371Y-122975437D01*
X145183133Y-122946287D01*
X145094388Y-122814470D01*
X145091196Y-122809728D01*
X144930468Y-122641242D01*
X144743650Y-122502246D01*
X144616574Y-122437637D01*
X144540842Y-122399133D01*
X144540841Y-122399133D01*
X144536084Y-122396714D01*
X144397299Y-122353620D01*
X144318807Y-122329247D01*
X144318801Y-122329246D01*
X144313704Y-122327663D01*
X144189340Y-122311180D01*
X144088152Y-122297768D01*
X144088148Y-122297768D01*
X144082868Y-122297068D01*
X144077538Y-122297268D01*
X144077537Y-122297268D01*
X143966523Y-122301435D01*
X143850178Y-122305803D01*
X143844955Y-122306899D01*
X143627514Y-122352523D01*
X143627511Y-122352524D01*
X143622287Y-122353620D01*
X143405710Y-122439150D01*
X143206641Y-122559949D01*
X143202611Y-122563446D01*
X143108075Y-122645480D01*
X143030770Y-122712561D01*
X143027387Y-122716687D01*
X143027383Y-122716691D01*
X142954262Y-122805869D01*
X142883128Y-122892624D01*
X142880490Y-122897259D01*
X142880487Y-122897263D01*
X142857155Y-122938252D01*
X142806073Y-122987558D01*
X142736442Y-123001420D01*
X142670371Y-122975437D01*
X142643133Y-122946287D01*
X142554388Y-122814470D01*
X142551196Y-122809728D01*
X142390468Y-122641242D01*
X142203650Y-122502246D01*
X142076574Y-122437637D01*
X142000842Y-122399133D01*
X142000841Y-122399133D01*
X141996084Y-122396714D01*
X141857299Y-122353620D01*
X141778807Y-122329247D01*
X141778801Y-122329246D01*
X141773704Y-122327663D01*
X141649340Y-122311180D01*
X141548152Y-122297768D01*
X141548148Y-122297768D01*
X141542868Y-122297068D01*
X141537538Y-122297268D01*
X141537537Y-122297268D01*
X141426523Y-122301435D01*
X141310178Y-122305803D01*
X141304955Y-122306899D01*
X141087514Y-122352523D01*
X141087511Y-122352524D01*
X141082287Y-122353620D01*
X140865710Y-122439150D01*
X140666641Y-122559949D01*
X140662611Y-122563446D01*
X140568075Y-122645480D01*
X140490770Y-122712561D01*
X140487387Y-122716687D01*
X140487383Y-122716691D01*
X140414262Y-122805869D01*
X140343128Y-122892624D01*
X140340490Y-122897259D01*
X140340487Y-122897263D01*
X140317155Y-122938252D01*
X140266073Y-122987558D01*
X140196442Y-123001420D01*
X140130371Y-122975437D01*
X140103133Y-122946287D01*
X140014388Y-122814470D01*
X140011196Y-122809728D01*
X139850468Y-122641242D01*
X139663650Y-122502246D01*
X139536574Y-122437637D01*
X139460842Y-122399133D01*
X139460841Y-122399133D01*
X139456084Y-122396714D01*
X139317299Y-122353620D01*
X139238807Y-122329247D01*
X139238801Y-122329246D01*
X139233704Y-122327663D01*
X139109340Y-122311180D01*
X139008152Y-122297768D01*
X139008148Y-122297768D01*
X139002868Y-122297068D01*
X138997538Y-122297268D01*
X138997537Y-122297268D01*
X138886523Y-122301435D01*
X138770178Y-122305803D01*
X138764955Y-122306899D01*
X138547514Y-122352523D01*
X138547511Y-122352524D01*
X138542287Y-122353620D01*
X138325710Y-122439150D01*
X138126641Y-122559949D01*
X138122611Y-122563446D01*
X138028075Y-122645480D01*
X137950770Y-122712561D01*
X137947387Y-122716687D01*
X137947383Y-122716691D01*
X137874262Y-122805869D01*
X137803128Y-122892624D01*
X137800490Y-122897259D01*
X137800487Y-122897263D01*
X137737589Y-123007760D01*
X137687935Y-123094989D01*
X137686114Y-123100005D01*
X137686112Y-123100010D01*
X137644302Y-123215194D01*
X137608485Y-123313869D01*
X137567050Y-123543007D01*
X137566855Y-123547146D01*
X137566854Y-123547153D01*
X137565970Y-123565905D01*
X137565900Y-123567394D01*
X137565900Y-124035868D01*
X116070256Y-124035868D01*
X116083523Y-123825000D01*
X116063451Y-123505961D01*
X116003551Y-123191954D01*
X115907890Y-122897542D01*
X115905993Y-122891703D01*
X115905993Y-122891702D01*
X115904767Y-122887930D01*
X115903078Y-122884340D01*
X115770347Y-122602271D01*
X115770343Y-122602264D01*
X115768659Y-122598685D01*
X115675583Y-122452021D01*
X115599498Y-122332130D01*
X115599495Y-122332126D01*
X115597371Y-122328779D01*
X115393606Y-122082470D01*
X115383619Y-122073091D01*
X115259437Y-121956477D01*
X115160577Y-121863641D01*
X114901959Y-121675744D01*
X114898487Y-121673835D01*
X114625293Y-121523645D01*
X114625290Y-121523643D01*
X114621831Y-121521742D01*
X114351527Y-121414721D01*
X114328293Y-121405522D01*
X114328290Y-121405521D01*
X114324610Y-121404064D01*
X114320776Y-121403080D01*
X114320768Y-121403077D01*
X114128847Y-121353800D01*
X114014983Y-121324565D01*
X114011055Y-121324069D01*
X114011051Y-121324068D01*
X113855423Y-121304408D01*
X113697835Y-121284500D01*
X113378165Y-121284500D01*
X113220577Y-121304408D01*
X113064949Y-121324068D01*
X113064945Y-121324069D01*
X113061017Y-121324565D01*
X112947153Y-121353800D01*
X112755232Y-121403077D01*
X112755224Y-121403080D01*
X112751390Y-121404064D01*
X112747710Y-121405521D01*
X112747707Y-121405522D01*
X112724473Y-121414721D01*
X112454169Y-121521742D01*
X112450710Y-121523643D01*
X112450707Y-121523645D01*
X112177513Y-121673835D01*
X112174041Y-121675744D01*
X111915423Y-121863641D01*
X111816563Y-121956477D01*
X111718753Y-122048327D01*
X111655403Y-122080378D01*
X111584781Y-122073091D01*
X111529310Y-122028781D01*
X111506500Y-121956477D01*
X111506500Y-116860669D01*
X122579001Y-116860669D01*
X122579371Y-116867490D01*
X122584895Y-116918352D01*
X122588521Y-116933604D01*
X122633676Y-117054054D01*
X122642214Y-117069649D01*
X122718715Y-117171724D01*
X122731276Y-117184285D01*
X122833351Y-117260786D01*
X122848946Y-117269324D01*
X122969394Y-117314478D01*
X122984649Y-117318105D01*
X123035514Y-117323631D01*
X123042328Y-117324000D01*
X123425885Y-117324000D01*
X123441124Y-117319525D01*
X123442329Y-117318135D01*
X123444000Y-117310452D01*
X123444000Y-117305884D01*
X123952000Y-117305884D01*
X123956475Y-117321123D01*
X123957865Y-117322328D01*
X123965548Y-117323999D01*
X124353669Y-117323999D01*
X124360490Y-117323629D01*
X124411352Y-117318105D01*
X124426604Y-117314479D01*
X124547054Y-117269324D01*
X124562649Y-117260786D01*
X124664724Y-117184285D01*
X124677285Y-117171724D01*
X124753786Y-117069649D01*
X124762324Y-117054054D01*
X124807478Y-116933606D01*
X124811105Y-116918351D01*
X124816631Y-116867486D01*
X124817000Y-116860672D01*
X124817000Y-116477115D01*
X124812525Y-116461876D01*
X124811135Y-116460671D01*
X124803452Y-116459000D01*
X123970115Y-116459000D01*
X123954876Y-116463475D01*
X123953671Y-116464865D01*
X123952000Y-116472548D01*
X123952000Y-117305884D01*
X123444000Y-117305884D01*
X123444000Y-116477115D01*
X123439525Y-116461876D01*
X123438135Y-116460671D01*
X123430452Y-116459000D01*
X122597116Y-116459000D01*
X122581877Y-116463475D01*
X122580672Y-116464865D01*
X122579001Y-116472548D01*
X122579001Y-116860669D01*
X111506500Y-116860669D01*
X111506500Y-116175569D01*
X127654089Y-116175569D01*
X127667546Y-116380879D01*
X127718192Y-116580298D01*
X127804331Y-116767148D01*
X127923079Y-116935172D01*
X127927213Y-116939199D01*
X128055315Y-117063990D01*
X128070458Y-117078742D01*
X128241532Y-117193051D01*
X128246835Y-117195329D01*
X128246838Y-117195331D01*
X128399190Y-117260786D01*
X128430573Y-117274269D01*
X128503700Y-117290816D01*
X128625613Y-117318402D01*
X128625618Y-117318403D01*
X128631250Y-117319677D01*
X128637021Y-117319904D01*
X128637023Y-117319904D01*
X128698460Y-117322318D01*
X128836841Y-117327755D01*
X129040462Y-117298232D01*
X129111055Y-117274269D01*
X129229820Y-117233954D01*
X129229825Y-117233952D01*
X129235292Y-117232096D01*
X129300941Y-117195331D01*
X129310744Y-117189841D01*
X129414808Y-117131562D01*
X129572997Y-116999997D01*
X129676368Y-116875708D01*
X129700868Y-116846250D01*
X129700870Y-116846247D01*
X129704562Y-116841808D01*
X129805096Y-116662292D01*
X129806952Y-116656825D01*
X129806954Y-116656820D01*
X129869376Y-116472930D01*
X129869376Y-116472929D01*
X129871232Y-116467462D01*
X129900755Y-116263841D01*
X129902296Y-116205000D01*
X129883470Y-116000113D01*
X129869148Y-115949329D01*
X129829189Y-115807648D01*
X129827621Y-115802088D01*
X129736620Y-115617557D01*
X129613515Y-115452699D01*
X129508848Y-115355946D01*
X129466668Y-115316955D01*
X129466665Y-115316953D01*
X129462428Y-115313036D01*
X129288420Y-115203245D01*
X129097317Y-115127003D01*
X128895521Y-115086863D01*
X128889746Y-115086787D01*
X128889742Y-115086787D01*
X128786952Y-115085442D01*
X128689789Y-115084170D01*
X128684092Y-115085149D01*
X128684091Y-115085149D01*
X128492708Y-115118034D01*
X128492707Y-115118034D01*
X128487011Y-115119013D01*
X128293978Y-115190227D01*
X128117155Y-115295425D01*
X128112815Y-115299231D01*
X128112811Y-115299234D01*
X128048144Y-115355946D01*
X127962464Y-115431086D01*
X127958889Y-115435621D01*
X127958888Y-115435622D01*
X127869248Y-115549331D01*
X127835086Y-115592665D01*
X127832395Y-115597781D01*
X127832393Y-115597783D01*
X127819265Y-115622736D01*
X127739286Y-115774751D01*
X127737573Y-115780268D01*
X127684560Y-115951000D01*
X127678273Y-115971246D01*
X127654089Y-116175569D01*
X111506500Y-116175569D01*
X111506500Y-115932885D01*
X122579000Y-115932885D01*
X122583475Y-115948124D01*
X122584865Y-115949329D01*
X122592548Y-115951000D01*
X123425885Y-115951000D01*
X123441124Y-115946525D01*
X123442329Y-115945135D01*
X123444000Y-115937452D01*
X123444000Y-115932885D01*
X123952000Y-115932885D01*
X123956475Y-115948124D01*
X123957865Y-115949329D01*
X123965548Y-115951000D01*
X124798884Y-115951000D01*
X124814123Y-115946525D01*
X124815328Y-115945135D01*
X124816999Y-115937452D01*
X124816999Y-115549331D01*
X124816629Y-115542510D01*
X124811105Y-115491648D01*
X124807479Y-115476396D01*
X124762324Y-115355946D01*
X124753786Y-115340351D01*
X124677285Y-115238276D01*
X124664724Y-115225715D01*
X124562649Y-115149214D01*
X124547054Y-115140676D01*
X124426606Y-115095522D01*
X124411351Y-115091895D01*
X124360486Y-115086369D01*
X124353672Y-115086000D01*
X123970115Y-115086000D01*
X123954876Y-115090475D01*
X123953671Y-115091865D01*
X123952000Y-115099548D01*
X123952000Y-115932885D01*
X123444000Y-115932885D01*
X123444000Y-115104116D01*
X123439525Y-115088877D01*
X123438135Y-115087672D01*
X123430452Y-115086001D01*
X123042331Y-115086001D01*
X123035510Y-115086371D01*
X122984648Y-115091895D01*
X122969396Y-115095521D01*
X122848946Y-115140676D01*
X122833351Y-115149214D01*
X122731276Y-115225715D01*
X122718715Y-115238276D01*
X122642214Y-115340351D01*
X122633676Y-115355946D01*
X122588522Y-115476394D01*
X122584895Y-115491649D01*
X122579369Y-115542514D01*
X122579000Y-115549328D01*
X122579000Y-115932885D01*
X111506500Y-115932885D01*
X111506500Y-113635569D01*
X125114089Y-113635569D01*
X125127546Y-113840879D01*
X125178192Y-114040298D01*
X125264331Y-114227148D01*
X125383079Y-114395172D01*
X125530458Y-114538742D01*
X125701532Y-114653051D01*
X125706835Y-114655329D01*
X125706838Y-114655331D01*
X125885266Y-114731989D01*
X125890573Y-114734269D01*
X125963700Y-114750816D01*
X126085613Y-114778402D01*
X126085618Y-114778403D01*
X126091250Y-114779677D01*
X126097021Y-114779904D01*
X126097023Y-114779904D01*
X126158460Y-114782318D01*
X126296841Y-114787755D01*
X126500462Y-114758232D01*
X126571055Y-114734269D01*
X126689820Y-114693954D01*
X126689825Y-114693952D01*
X126695292Y-114692096D01*
X126760941Y-114655331D01*
X126770744Y-114649841D01*
X126874808Y-114591562D01*
X127032997Y-114459997D01*
X127164562Y-114301808D01*
X127265096Y-114122292D01*
X127266952Y-114116825D01*
X127266954Y-114116820D01*
X127329376Y-113932930D01*
X127329376Y-113932929D01*
X127331232Y-113927462D01*
X127360755Y-113723841D01*
X127362296Y-113665000D01*
X127343470Y-113460113D01*
X127287621Y-113262088D01*
X127196620Y-113077557D01*
X127073515Y-112912699D01*
X126922428Y-112773036D01*
X126748420Y-112663245D01*
X126557317Y-112587003D01*
X126355521Y-112546863D01*
X126349746Y-112546787D01*
X126349742Y-112546787D01*
X126246952Y-112545442D01*
X126149789Y-112544170D01*
X126144092Y-112545149D01*
X126144091Y-112545149D01*
X125952708Y-112578034D01*
X125952707Y-112578034D01*
X125947011Y-112579013D01*
X125753978Y-112650227D01*
X125577155Y-112755425D01*
X125572815Y-112759231D01*
X125572811Y-112759234D01*
X125426805Y-112887279D01*
X125422464Y-112891086D01*
X125418889Y-112895621D01*
X125418888Y-112895622D01*
X125401781Y-112917323D01*
X125295086Y-113052665D01*
X125292395Y-113057781D01*
X125292393Y-113057783D01*
X125279265Y-113082736D01*
X125199286Y-113234751D01*
X125138273Y-113431246D01*
X125114089Y-113635569D01*
X111506500Y-113635569D01*
X111506500Y-109840851D01*
X112524719Y-109840851D01*
X112541268Y-110037934D01*
X112542967Y-110043858D01*
X112590351Y-110209106D01*
X112595783Y-110228050D01*
X112598602Y-110233535D01*
X112680306Y-110392512D01*
X112686187Y-110403956D01*
X112809035Y-110558953D01*
X112813728Y-110562947D01*
X112813729Y-110562948D01*
X112902704Y-110638671D01*
X112959650Y-110687136D01*
X113132294Y-110783624D01*
X113320392Y-110844740D01*
X113516777Y-110868158D01*
X113522912Y-110867686D01*
X113522914Y-110867686D01*
X113707830Y-110853457D01*
X113707834Y-110853456D01*
X113713972Y-110852984D01*
X113904463Y-110799798D01*
X113909967Y-110797018D01*
X113909969Y-110797017D01*
X114075495Y-110713404D01*
X114075497Y-110713403D01*
X114080996Y-110710625D01*
X114201224Y-110616693D01*
X114231986Y-110592659D01*
X114231987Y-110592658D01*
X114236847Y-110588861D01*
X114295143Y-110521324D01*
X114355371Y-110482658D01*
X114364449Y-110480021D01*
X114383806Y-110476013D01*
X114396036Y-110474468D01*
X114396037Y-110474468D01*
X114403903Y-110473474D01*
X114411274Y-110470555D01*
X114411276Y-110470555D01*
X114445018Y-110457196D01*
X114456248Y-110453351D01*
X114491089Y-110443229D01*
X114491090Y-110443229D01*
X114498699Y-110441018D01*
X114505518Y-110436985D01*
X114505523Y-110436983D01*
X114516134Y-110430707D01*
X114533882Y-110422012D01*
X114552723Y-110414552D01*
X114560664Y-110408783D01*
X114588493Y-110388564D01*
X114598413Y-110382048D01*
X114629641Y-110363580D01*
X114629644Y-110363578D01*
X114636468Y-110359542D01*
X114650789Y-110345221D01*
X114665823Y-110332380D01*
X114675800Y-110325131D01*
X114682213Y-110320472D01*
X114710404Y-110286395D01*
X114718394Y-110277616D01*
X129170253Y-95825758D01*
X129178539Y-95818218D01*
X129185018Y-95814106D01*
X129231644Y-95764454D01*
X129234398Y-95761613D01*
X129254135Y-95741876D01*
X129256615Y-95738679D01*
X129264320Y-95729657D01*
X129289159Y-95703206D01*
X129294586Y-95697427D01*
X129298405Y-95690481D01*
X129298407Y-95690478D01*
X129304348Y-95679672D01*
X129315199Y-95663153D01*
X129322758Y-95653407D01*
X129327614Y-95647147D01*
X129330759Y-95639878D01*
X129330762Y-95639874D01*
X129345174Y-95606569D01*
X129350391Y-95595919D01*
X129371695Y-95557166D01*
X129376733Y-95537543D01*
X129383137Y-95518840D01*
X129388033Y-95507526D01*
X129388033Y-95507525D01*
X129391181Y-95500251D01*
X129392420Y-95492428D01*
X129392423Y-95492418D01*
X129398099Y-95456582D01*
X129400505Y-95444962D01*
X129409528Y-95409817D01*
X129409528Y-95409816D01*
X129411500Y-95402136D01*
X129411500Y-95381882D01*
X129413051Y-95362171D01*
X129414980Y-95349992D01*
X129416220Y-95342163D01*
X129412059Y-95298144D01*
X129411500Y-95286287D01*
X129411500Y-93305144D01*
X129401459Y-93225659D01*
X129397468Y-93194068D01*
X129397467Y-93194064D01*
X129396474Y-93186203D01*
X129337552Y-93037383D01*
X129243472Y-92907893D01*
X129120144Y-92805867D01*
X129112977Y-92802494D01*
X129112973Y-92802492D01*
X129047081Y-92771486D01*
X128975318Y-92737717D01*
X128818094Y-92707725D01*
X128729600Y-92713292D01*
X128666262Y-92717277D01*
X128666260Y-92717277D01*
X128658350Y-92717775D01*
X128650814Y-92720224D01*
X128650812Y-92720224D01*
X128513667Y-92764785D01*
X128513664Y-92764786D01*
X128506125Y-92767236D01*
X128370982Y-92853000D01*
X128261414Y-92969679D01*
X128184305Y-93109940D01*
X128144500Y-93264970D01*
X128144500Y-95007512D01*
X128124498Y-95075633D01*
X128107595Y-95096607D01*
X114761595Y-108442606D01*
X114699283Y-108476632D01*
X114628468Y-108471567D01*
X114571632Y-108429020D01*
X114546821Y-108362500D01*
X114546500Y-108353511D01*
X114546500Y-108036866D01*
X114539745Y-107974684D01*
X114488615Y-107838295D01*
X114401261Y-107721739D01*
X114284705Y-107634385D01*
X114148316Y-107583255D01*
X114086134Y-107576500D01*
X112989866Y-107576500D01*
X112927684Y-107583255D01*
X112791295Y-107634385D01*
X112674739Y-107721739D01*
X112587385Y-107838295D01*
X112536255Y-107974684D01*
X112529500Y-108036866D01*
X112529500Y-109133134D01*
X112536255Y-109195316D01*
X112587385Y-109331705D01*
X112592771Y-109338892D01*
X112597079Y-109346760D01*
X112594858Y-109347976D01*
X112615013Y-109401910D01*
X112605993Y-109455605D01*
X112606567Y-109455787D01*
X112546765Y-109644306D01*
X112524719Y-109840851D01*
X111506500Y-109840851D01*
X111506500Y-99680851D01*
X112524719Y-99680851D01*
X112541268Y-99877934D01*
X112595783Y-100068050D01*
X112686187Y-100243956D01*
X112809035Y-100398953D01*
X112813728Y-100402947D01*
X112813729Y-100402948D01*
X112902704Y-100478671D01*
X112959650Y-100527136D01*
X113132294Y-100623624D01*
X113320392Y-100684740D01*
X113516777Y-100708158D01*
X113522912Y-100707686D01*
X113522914Y-100707686D01*
X113707830Y-100693457D01*
X113707834Y-100693456D01*
X113713972Y-100692984D01*
X113904463Y-100639798D01*
X113909967Y-100637018D01*
X113909969Y-100637017D01*
X114075495Y-100553404D01*
X114075497Y-100553403D01*
X114080996Y-100550625D01*
X114236847Y-100428861D01*
X114366078Y-100279145D01*
X114463769Y-100107179D01*
X114526197Y-99919513D01*
X114550985Y-99723295D01*
X114551380Y-99695000D01*
X114532080Y-99498167D01*
X114529562Y-99489825D01*
X114476697Y-99314731D01*
X114474916Y-99308831D01*
X114382066Y-99134204D01*
X114378167Y-99129424D01*
X114377715Y-99128743D01*
X114356676Y-99060935D01*
X114373105Y-98996775D01*
X114381210Y-98982509D01*
X114425566Y-98904429D01*
X114438037Y-98886351D01*
X114462819Y-98856395D01*
X114470808Y-98847616D01*
X123838665Y-89479759D01*
X123900977Y-89445733D01*
X123971792Y-89450798D01*
X124016855Y-89479759D01*
X125818230Y-91281135D01*
X125912959Y-91354614D01*
X126059855Y-91418181D01*
X126217943Y-91443220D01*
X126225835Y-91442474D01*
X126369404Y-91428903D01*
X126369407Y-91428902D01*
X126377292Y-91428157D01*
X126384746Y-91425474D01*
X126384748Y-91425473D01*
X126520429Y-91376625D01*
X126520431Y-91376624D01*
X126527889Y-91373939D01*
X126660271Y-91283972D01*
X126766120Y-91163910D01*
X126773415Y-91149594D01*
X126835184Y-91028363D01*
X126835185Y-91028361D01*
X126838785Y-91021296D01*
X126858066Y-90935044D01*
X126871972Y-90872832D01*
X126871973Y-90872826D01*
X126873702Y-90865091D01*
X126871938Y-90808958D01*
X126868922Y-90713036D01*
X126868673Y-90705111D01*
X126866461Y-90697495D01*
X126826230Y-90559020D01*
X126826229Y-90559018D01*
X126824018Y-90551407D01*
X126795133Y-90502564D01*
X126746576Y-90420459D01*
X126742542Y-90413638D01*
X126252249Y-89923345D01*
X125758304Y-89429399D01*
X125724278Y-89367087D01*
X125729343Y-89296271D01*
X125771890Y-89239436D01*
X125838410Y-89214625D01*
X125867105Y-89215855D01*
X125900084Y-89221078D01*
X125907976Y-89220332D01*
X125913203Y-89219838D01*
X125916465Y-89219530D01*
X126051546Y-89206762D01*
X126051550Y-89206761D01*
X126059433Y-89206016D01*
X126148667Y-89173890D01*
X126219535Y-89169634D01*
X126280442Y-89203346D01*
X128358231Y-91281135D01*
X128405114Y-91317501D01*
X128446695Y-91349755D01*
X128446698Y-91349757D01*
X128452960Y-91354614D01*
X128460233Y-91357762D01*
X128460236Y-91357763D01*
X128592578Y-91415032D01*
X128599855Y-91418181D01*
X128757943Y-91443220D01*
X128765835Y-91442474D01*
X128909405Y-91428903D01*
X128909408Y-91428902D01*
X128917293Y-91428157D01*
X128924747Y-91425474D01*
X128924749Y-91425473D01*
X129060431Y-91376624D01*
X129067889Y-91373939D01*
X129091692Y-91357763D01*
X129177076Y-91299736D01*
X129200271Y-91283973D01*
X129306121Y-91163910D01*
X129309719Y-91156849D01*
X129375187Y-91028361D01*
X129375188Y-91028359D01*
X129378786Y-91021297D01*
X129413702Y-90865092D01*
X129408674Y-90705111D01*
X129364019Y-90551407D01*
X129282542Y-90413638D01*
X125481652Y-86612747D01*
X125474112Y-86604461D01*
X125470000Y-86597982D01*
X125420348Y-86551356D01*
X125417507Y-86548602D01*
X125397770Y-86528865D01*
X125394573Y-86526385D01*
X125385551Y-86518680D01*
X125353321Y-86488414D01*
X125346375Y-86484595D01*
X125346372Y-86484593D01*
X125335566Y-86478652D01*
X125319047Y-86467801D01*
X125318583Y-86467441D01*
X125303041Y-86455386D01*
X125295772Y-86452241D01*
X125295768Y-86452238D01*
X125262463Y-86437826D01*
X125251813Y-86432609D01*
X125213060Y-86411305D01*
X125193437Y-86406267D01*
X125174734Y-86399863D01*
X125163420Y-86394967D01*
X125163419Y-86394967D01*
X125156145Y-86391819D01*
X125148322Y-86390580D01*
X125148312Y-86390577D01*
X125112476Y-86384901D01*
X125100856Y-86382495D01*
X125065711Y-86373472D01*
X125065710Y-86373472D01*
X125058030Y-86371500D01*
X125037776Y-86371500D01*
X125018065Y-86369949D01*
X125005886Y-86368020D01*
X124998057Y-86366780D01*
X124959995Y-86370378D01*
X124954039Y-86370941D01*
X124942181Y-86371500D01*
X114577826Y-86371500D01*
X114509705Y-86351498D01*
X114463212Y-86297842D01*
X114453108Y-86227568D01*
X114468269Y-86183266D01*
X114488769Y-86147179D01*
X114551197Y-85959513D01*
X114575985Y-85763295D01*
X114576380Y-85735000D01*
X114557080Y-85538167D01*
X114499916Y-85348831D01*
X114407066Y-85174204D01*
X114403167Y-85169424D01*
X114402715Y-85168743D01*
X114381676Y-85100935D01*
X114398105Y-85036775D01*
X114485723Y-84882542D01*
X114485725Y-84882537D01*
X114488769Y-84877179D01*
X114551197Y-84689513D01*
X114575985Y-84493295D01*
X114576380Y-84465000D01*
X114557080Y-84268167D01*
X114499916Y-84078831D01*
X114407066Y-83904204D01*
X114403167Y-83899424D01*
X114402715Y-83898743D01*
X114381676Y-83830935D01*
X114398105Y-83766775D01*
X114485723Y-83612542D01*
X114485725Y-83612537D01*
X114488769Y-83607179D01*
X114551197Y-83419513D01*
X114575985Y-83223295D01*
X114576380Y-83195000D01*
X114557080Y-82998167D01*
X114499916Y-82808831D01*
X114497024Y-82803391D01*
X114495195Y-82798954D01*
X114487731Y-82728350D01*
X114505512Y-82687631D01*
X114503921Y-82686760D01*
X114508229Y-82678892D01*
X114513615Y-82671705D01*
X114516769Y-82663293D01*
X114525401Y-82640269D01*
X114568043Y-82583505D01*
X114634605Y-82558806D01*
X114643382Y-82558500D01*
X124663406Y-82558500D01*
X124731527Y-82578502D01*
X124752501Y-82595405D01*
X135978230Y-93821135D01*
X136072959Y-93894614D01*
X136219855Y-93958181D01*
X136377943Y-93983220D01*
X136385835Y-93982474D01*
X136529404Y-93968903D01*
X136529407Y-93968902D01*
X136537292Y-93968157D01*
X136544746Y-93965474D01*
X136544748Y-93965473D01*
X136680429Y-93916625D01*
X136680431Y-93916624D01*
X136687889Y-93913939D01*
X136820271Y-93823972D01*
X136926120Y-93703910D01*
X136929718Y-93696849D01*
X136995187Y-93568360D01*
X136995188Y-93568358D01*
X136998786Y-93561296D01*
X137033702Y-93405091D01*
X137028674Y-93245111D01*
X136984018Y-93091407D01*
X136908612Y-92963902D01*
X136906576Y-92960459D01*
X136902542Y-92953638D01*
X125481652Y-81532747D01*
X125474112Y-81524461D01*
X125470000Y-81517982D01*
X125420348Y-81471356D01*
X125417507Y-81468602D01*
X125397770Y-81448865D01*
X125394573Y-81446385D01*
X125385551Y-81438680D01*
X125359100Y-81413841D01*
X125353321Y-81408414D01*
X125346375Y-81404595D01*
X125346372Y-81404593D01*
X125335566Y-81398652D01*
X125319047Y-81387801D01*
X125309354Y-81380283D01*
X125303041Y-81375386D01*
X125295772Y-81372241D01*
X125295768Y-81372238D01*
X125262463Y-81357826D01*
X125251813Y-81352609D01*
X125213060Y-81331305D01*
X125193437Y-81326267D01*
X125174734Y-81319863D01*
X125163420Y-81314967D01*
X125163419Y-81314967D01*
X125156145Y-81311819D01*
X125148322Y-81310580D01*
X125148312Y-81310577D01*
X125112476Y-81304901D01*
X125100856Y-81302495D01*
X125065711Y-81293472D01*
X125065710Y-81293472D01*
X125058030Y-81291500D01*
X125037776Y-81291500D01*
X125018065Y-81289949D01*
X125005886Y-81288020D01*
X124998057Y-81286780D01*
X124990165Y-81287526D01*
X124954039Y-81290941D01*
X124942181Y-81291500D01*
X114643382Y-81291500D01*
X114575261Y-81271498D01*
X114528768Y-81217842D01*
X114525401Y-81209731D01*
X114516769Y-81186707D01*
X114516767Y-81186703D01*
X114513615Y-81178295D01*
X114426261Y-81061739D01*
X114309705Y-80974385D01*
X114173316Y-80923255D01*
X114111134Y-80916500D01*
X113014866Y-80916500D01*
X112952684Y-80923255D01*
X112816295Y-80974385D01*
X112699739Y-81061739D01*
X112612385Y-81178295D01*
X112561255Y-81314684D01*
X112554500Y-81376866D01*
X112554500Y-82473134D01*
X112561255Y-82535316D01*
X112612385Y-82671705D01*
X112617771Y-82678892D01*
X112622079Y-82686760D01*
X112619858Y-82687976D01*
X112640013Y-82741910D01*
X112630993Y-82795605D01*
X112631567Y-82795787D01*
X112629706Y-82801654D01*
X112629705Y-82801656D01*
X112573627Y-82978436D01*
X112571765Y-82984306D01*
X112549719Y-83180851D01*
X112566268Y-83377934D01*
X112620783Y-83568050D01*
X112711187Y-83743956D01*
X112715016Y-83748787D01*
X112716839Y-83751088D01*
X112717414Y-83752509D01*
X112718353Y-83753966D01*
X112718076Y-83754144D01*
X112743474Y-83816898D01*
X112730301Y-83886662D01*
X112726846Y-83892474D01*
X112631567Y-84065787D01*
X112629706Y-84071654D01*
X112629705Y-84071656D01*
X112573627Y-84248436D01*
X112571765Y-84254306D01*
X112549719Y-84450851D01*
X112550235Y-84456995D01*
X112560868Y-84583621D01*
X112566268Y-84647934D01*
X112620783Y-84838050D01*
X112623602Y-84843535D01*
X112673862Y-84941329D01*
X112711187Y-85013956D01*
X112715016Y-85018787D01*
X112716839Y-85021088D01*
X112717414Y-85022509D01*
X112718353Y-85023966D01*
X112718076Y-85024144D01*
X112743474Y-85086898D01*
X112730301Y-85156662D01*
X112726846Y-85162474D01*
X112631567Y-85335787D01*
X112629706Y-85341654D01*
X112629705Y-85341656D01*
X112576611Y-85509030D01*
X112571765Y-85524306D01*
X112549719Y-85720851D01*
X112550235Y-85726995D01*
X112565428Y-85907928D01*
X112566268Y-85917934D01*
X112574534Y-85946760D01*
X112616902Y-86094514D01*
X112620783Y-86108050D01*
X112711187Y-86283956D01*
X112715016Y-86288787D01*
X112716839Y-86291088D01*
X112717414Y-86292509D01*
X112718353Y-86293966D01*
X112718076Y-86294144D01*
X112743474Y-86356898D01*
X112730301Y-86426662D01*
X112726846Y-86432474D01*
X112631567Y-86605787D01*
X112629706Y-86611654D01*
X112629705Y-86611656D01*
X112573627Y-86788436D01*
X112571765Y-86794306D01*
X112549719Y-86990851D01*
X112566268Y-87187934D01*
X112620783Y-87378050D01*
X112711187Y-87553956D01*
X112715016Y-87558787D01*
X112716839Y-87561088D01*
X112717414Y-87562509D01*
X112718353Y-87563966D01*
X112718076Y-87564144D01*
X112743474Y-87626898D01*
X112730301Y-87696662D01*
X112726846Y-87702474D01*
X112631567Y-87875787D01*
X112629706Y-87881654D01*
X112629705Y-87881656D01*
X112573627Y-88058436D01*
X112571765Y-88064306D01*
X112549719Y-88260851D01*
X112550235Y-88266995D01*
X112560188Y-88385522D01*
X112566268Y-88457934D01*
X112586188Y-88527404D01*
X112601154Y-88579594D01*
X112620783Y-88648050D01*
X112711187Y-88823956D01*
X112717164Y-88831497D01*
X112717843Y-88833174D01*
X112718353Y-88833966D01*
X112718203Y-88834063D01*
X112743802Y-88897304D01*
X112730633Y-88967069D01*
X112727254Y-88972754D01*
X112727262Y-88972758D01*
X112634998Y-89140585D01*
X112630166Y-89151858D01*
X112591506Y-89273731D01*
X112591202Y-89287831D01*
X112597763Y-89291000D01*
X114521183Y-89291000D01*
X114534714Y-89287027D01*
X114535806Y-89279433D01*
X114501231Y-89164919D01*
X114496558Y-89153581D01*
X114464694Y-89093652D01*
X114450375Y-89024115D01*
X114475923Y-88957874D01*
X114533229Y-88915962D01*
X114575946Y-88908500D01*
X122313925Y-88908500D01*
X122382046Y-88928502D01*
X122428539Y-88982158D01*
X122438643Y-89052432D01*
X122409149Y-89117012D01*
X122403020Y-89123595D01*
X114761595Y-96765020D01*
X114699283Y-96799046D01*
X114628468Y-96793981D01*
X114571632Y-96751434D01*
X114546821Y-96684914D01*
X114546500Y-96675925D01*
X114546500Y-96606866D01*
X114539745Y-96544684D01*
X114488615Y-96408295D01*
X114401261Y-96291739D01*
X114284705Y-96204385D01*
X114148316Y-96153255D01*
X114086134Y-96146500D01*
X112989866Y-96146500D01*
X112927684Y-96153255D01*
X112791295Y-96204385D01*
X112674739Y-96291739D01*
X112587385Y-96408295D01*
X112536255Y-96544684D01*
X112529500Y-96606866D01*
X112529500Y-97703134D01*
X112536255Y-97765316D01*
X112587385Y-97901705D01*
X112592771Y-97908892D01*
X112597079Y-97916760D01*
X112594858Y-97917976D01*
X112615013Y-97971910D01*
X112605993Y-98025605D01*
X112606567Y-98025787D01*
X112546765Y-98214306D01*
X112524719Y-98410851D01*
X112525235Y-98416995D01*
X112538581Y-98575930D01*
X112541268Y-98607934D01*
X112547719Y-98630431D01*
X112590122Y-98778307D01*
X112595783Y-98798050D01*
X112598602Y-98803535D01*
X112658322Y-98919736D01*
X112686187Y-98973956D01*
X112690016Y-98978787D01*
X112691839Y-98981088D01*
X112692414Y-98982509D01*
X112693353Y-98983966D01*
X112693076Y-98984144D01*
X112718474Y-99046898D01*
X112705301Y-99116662D01*
X112701846Y-99122474D01*
X112606567Y-99295787D01*
X112604706Y-99301654D01*
X112604705Y-99301656D01*
X112548627Y-99478436D01*
X112546765Y-99484306D01*
X112524719Y-99680851D01*
X111506500Y-99680851D01*
X111506500Y-89810975D01*
X112590601Y-89810975D01*
X112619552Y-89911941D01*
X112624067Y-89923345D01*
X112708794Y-90088207D01*
X112715435Y-90098512D01*
X112830568Y-90243772D01*
X112839091Y-90252598D01*
X112980245Y-90372730D01*
X112990317Y-90379730D01*
X113152116Y-90470156D01*
X113163356Y-90475067D01*
X113291768Y-90516790D01*
X113305867Y-90517193D01*
X113309000Y-90510821D01*
X113309000Y-90502564D01*
X113817000Y-90502564D01*
X113820973Y-90516095D01*
X113829188Y-90517276D01*
X113923337Y-90490989D01*
X113934787Y-90486548D01*
X114100226Y-90402979D01*
X114110585Y-90396404D01*
X114256639Y-90282295D01*
X114265527Y-90273831D01*
X114386643Y-90133517D01*
X114393711Y-90123497D01*
X114485262Y-89962337D01*
X114490256Y-89951121D01*
X114535142Y-89816190D01*
X114535643Y-89802097D01*
X114529454Y-89799000D01*
X113835115Y-89799000D01*
X113819876Y-89803475D01*
X113818671Y-89804865D01*
X113817000Y-89812548D01*
X113817000Y-90502564D01*
X113309000Y-90502564D01*
X113309000Y-89817115D01*
X113304525Y-89801876D01*
X113303135Y-89800671D01*
X113295452Y-89799000D01*
X112605282Y-89799000D01*
X112591751Y-89802973D01*
X112590601Y-89810975D01*
X111506500Y-89810975D01*
X111506500Y-77433523D01*
X111526502Y-77365402D01*
X111580158Y-77318909D01*
X111650432Y-77308805D01*
X111718752Y-77341673D01*
X111915423Y-77526359D01*
X111918625Y-77528686D01*
X111918627Y-77528687D01*
X111927959Y-77535467D01*
X112174041Y-77714256D01*
X112454169Y-77868258D01*
X112616083Y-77932364D01*
X112747707Y-77984478D01*
X112747710Y-77984479D01*
X112751390Y-77985936D01*
X112755224Y-77986920D01*
X112755232Y-77986923D01*
X112935498Y-78033207D01*
X113061017Y-78065435D01*
X113064945Y-78065931D01*
X113064949Y-78065932D01*
X113190642Y-78081810D01*
X113378165Y-78105500D01*
X113697835Y-78105500D01*
X113885358Y-78081810D01*
X114011051Y-78065932D01*
X114011055Y-78065931D01*
X114014983Y-78065435D01*
X114140502Y-78033207D01*
X114320768Y-77986923D01*
X114320776Y-77986920D01*
X114324610Y-77985936D01*
X114328290Y-77984479D01*
X114328293Y-77984478D01*
X114459917Y-77932364D01*
X114621831Y-77868258D01*
X114901959Y-77714256D01*
X115148041Y-77535467D01*
X115157373Y-77528687D01*
X115157375Y-77528686D01*
X115160577Y-77526359D01*
X115393606Y-77307530D01*
X115597371Y-77061221D01*
X115606087Y-77047488D01*
X115766535Y-76794662D01*
X115766535Y-76794661D01*
X115768659Y-76791315D01*
X115770343Y-76787736D01*
X115770347Y-76787729D01*
X115903078Y-76505660D01*
X115903080Y-76505656D01*
X115904767Y-76502070D01*
X115907800Y-76492737D01*
X116002324Y-76201822D01*
X116003551Y-76198046D01*
X116063451Y-75884039D01*
X116083523Y-75565000D01*
X116063451Y-75245961D01*
X116003551Y-74931954D01*
X115907893Y-74637551D01*
X115905993Y-74631703D01*
X115905993Y-74631702D01*
X115904767Y-74627930D01*
X115887013Y-74590200D01*
X115770347Y-74342271D01*
X115770343Y-74342264D01*
X115768659Y-74338685D01*
X115666170Y-74177188D01*
X115599498Y-74072130D01*
X115599495Y-74072126D01*
X115597371Y-74068779D01*
X115393606Y-73822470D01*
X115383620Y-73813092D01*
X115317871Y-73751350D01*
X115281906Y-73690137D01*
X115284744Y-73619197D01*
X115325484Y-73561053D01*
X115391192Y-73534165D01*
X115404124Y-73533500D01*
X130625405Y-73533500D01*
X130693526Y-73553502D01*
G37*
G04 #@! TD.AperFunction*
G04 #@! TA.AperFunction,Conductor*
G36*
X137610121Y-75331002D02*
G01*
X137656614Y-75384658D01*
X137668000Y-75437000D01*
X137668000Y-77047488D01*
X137671973Y-77061019D01*
X137682580Y-77062544D01*
X137804343Y-77036996D01*
X137814539Y-77033936D01*
X138021097Y-76952363D01*
X138030634Y-76947629D01*
X138220503Y-76832414D01*
X138229093Y-76826150D01*
X138396837Y-76680589D01*
X138404257Y-76672959D01*
X138545073Y-76501220D01*
X138551102Y-76492449D01*
X138574533Y-76451285D01*
X138625615Y-76401978D01*
X138695245Y-76388116D01*
X138761316Y-76414099D01*
X138788555Y-76443249D01*
X138880804Y-76580272D01*
X139041532Y-76748758D01*
X139228350Y-76887754D01*
X139233102Y-76890170D01*
X139430244Y-76990402D01*
X139435916Y-76993286D01*
X139547106Y-77027811D01*
X139653193Y-77060753D01*
X139653199Y-77060754D01*
X139658296Y-77062337D01*
X139782660Y-77078820D01*
X139883848Y-77092232D01*
X139883852Y-77092232D01*
X139889132Y-77092932D01*
X139894462Y-77092732D01*
X139894463Y-77092732D01*
X140005477Y-77088564D01*
X140121822Y-77084197D01*
X140226005Y-77062337D01*
X140344486Y-77037477D01*
X140344489Y-77037476D01*
X140349713Y-77036380D01*
X140566290Y-76950850D01*
X140765359Y-76830051D01*
X140769855Y-76826150D01*
X140937197Y-76680939D01*
X140937199Y-76680937D01*
X140941230Y-76677439D01*
X140944613Y-76673313D01*
X140944617Y-76673309D01*
X141043776Y-76552374D01*
X141088872Y-76497376D01*
X141114845Y-76451748D01*
X141165927Y-76402442D01*
X141235558Y-76388580D01*
X141301629Y-76414563D01*
X141328867Y-76443713D01*
X141420804Y-76580272D01*
X141581532Y-76748758D01*
X141768350Y-76887754D01*
X141773102Y-76890170D01*
X141970244Y-76990402D01*
X141975916Y-76993286D01*
X142087106Y-77027811D01*
X142193193Y-77060753D01*
X142193199Y-77060754D01*
X142198296Y-77062337D01*
X142322660Y-77078820D01*
X142423848Y-77092232D01*
X142423852Y-77092232D01*
X142429132Y-77092932D01*
X142434462Y-77092732D01*
X142434463Y-77092732D01*
X142545477Y-77088564D01*
X142661822Y-77084197D01*
X142766005Y-77062337D01*
X142884486Y-77037477D01*
X142884489Y-77037476D01*
X142889713Y-77036380D01*
X143106290Y-76950850D01*
X143305359Y-76830051D01*
X143309855Y-76826150D01*
X143477197Y-76680939D01*
X143477199Y-76680937D01*
X143481230Y-76677439D01*
X143484613Y-76673313D01*
X143484617Y-76673309D01*
X143583776Y-76552374D01*
X143628872Y-76497376D01*
X143654845Y-76451748D01*
X143705927Y-76402442D01*
X143775558Y-76388580D01*
X143841629Y-76414563D01*
X143868867Y-76443713D01*
X143960804Y-76580272D01*
X144121532Y-76748758D01*
X144308350Y-76887754D01*
X144313102Y-76890170D01*
X144510244Y-76990402D01*
X144515916Y-76993286D01*
X144627106Y-77027811D01*
X144733193Y-77060753D01*
X144733199Y-77060754D01*
X144738296Y-77062337D01*
X144862660Y-77078820D01*
X144963848Y-77092232D01*
X144963852Y-77092232D01*
X144969132Y-77092932D01*
X144974462Y-77092732D01*
X144974463Y-77092732D01*
X145085477Y-77088564D01*
X145201822Y-77084197D01*
X145306005Y-77062337D01*
X145424486Y-77037477D01*
X145424489Y-77037476D01*
X145429713Y-77036380D01*
X145646290Y-76950850D01*
X145845359Y-76830051D01*
X145849855Y-76826150D01*
X146017197Y-76680939D01*
X146017199Y-76680937D01*
X146021230Y-76677439D01*
X146024613Y-76673313D01*
X146024617Y-76673309D01*
X146123776Y-76552374D01*
X146168872Y-76497376D01*
X146194845Y-76451748D01*
X146245927Y-76402442D01*
X146315558Y-76388580D01*
X146381629Y-76414563D01*
X146408867Y-76443713D01*
X146500804Y-76580272D01*
X146661532Y-76748758D01*
X146848350Y-76887754D01*
X146853102Y-76890170D01*
X147050244Y-76990402D01*
X147055916Y-76993286D01*
X147167106Y-77027811D01*
X147273193Y-77060753D01*
X147273199Y-77060754D01*
X147278296Y-77062337D01*
X147402660Y-77078820D01*
X147503848Y-77092232D01*
X147503852Y-77092232D01*
X147509132Y-77092932D01*
X147514462Y-77092732D01*
X147514463Y-77092732D01*
X147625477Y-77088564D01*
X147741822Y-77084197D01*
X147846005Y-77062337D01*
X147964486Y-77037477D01*
X147964489Y-77037476D01*
X147969713Y-77036380D01*
X148186290Y-76950850D01*
X148385359Y-76830051D01*
X148389855Y-76826150D01*
X148557197Y-76680939D01*
X148557199Y-76680937D01*
X148561230Y-76677439D01*
X148564613Y-76673313D01*
X148564617Y-76673309D01*
X148663776Y-76552374D01*
X148708872Y-76497376D01*
X148734845Y-76451748D01*
X148785927Y-76402442D01*
X148855558Y-76388580D01*
X148921629Y-76414563D01*
X148948867Y-76443713D01*
X149040804Y-76580272D01*
X149201532Y-76748758D01*
X149388350Y-76887754D01*
X149393102Y-76890170D01*
X149590244Y-76990402D01*
X149595916Y-76993286D01*
X149707106Y-77027811D01*
X149813193Y-77060753D01*
X149813199Y-77060754D01*
X149818296Y-77062337D01*
X149942660Y-77078820D01*
X150043848Y-77092232D01*
X150043852Y-77092232D01*
X150049132Y-77092932D01*
X150054462Y-77092732D01*
X150054463Y-77092732D01*
X150165477Y-77088564D01*
X150281822Y-77084197D01*
X150386005Y-77062337D01*
X150504486Y-77037477D01*
X150504489Y-77037476D01*
X150509713Y-77036380D01*
X150726290Y-76950850D01*
X150925359Y-76830051D01*
X150929855Y-76826150D01*
X151097197Y-76680939D01*
X151097199Y-76680937D01*
X151101230Y-76677439D01*
X151104613Y-76673313D01*
X151104617Y-76673309D01*
X151203776Y-76552374D01*
X151248872Y-76497376D01*
X151274845Y-76451748D01*
X151325927Y-76402442D01*
X151395558Y-76388580D01*
X151461629Y-76414563D01*
X151488867Y-76443713D01*
X151580804Y-76580272D01*
X151741532Y-76748758D01*
X151928350Y-76887754D01*
X151933102Y-76890170D01*
X152130244Y-76990402D01*
X152135916Y-76993286D01*
X152247106Y-77027811D01*
X152353193Y-77060753D01*
X152353199Y-77060754D01*
X152358296Y-77062337D01*
X152482660Y-77078820D01*
X152583848Y-77092232D01*
X152583852Y-77092232D01*
X152589132Y-77092932D01*
X152594462Y-77092732D01*
X152594463Y-77092732D01*
X152705477Y-77088564D01*
X152821822Y-77084197D01*
X152926005Y-77062337D01*
X153044486Y-77037477D01*
X153044489Y-77037476D01*
X153049713Y-77036380D01*
X153266290Y-76950850D01*
X153270850Y-76948083D01*
X153270862Y-76948077D01*
X153353134Y-76898152D01*
X153421748Y-76879912D01*
X153489330Y-76901663D01*
X153534425Y-76956499D01*
X153544500Y-77005870D01*
X153544500Y-78033207D01*
X153542268Y-78056816D01*
X153540725Y-78064906D01*
X153541223Y-78072817D01*
X153544251Y-78120951D01*
X153544500Y-78128862D01*
X153544500Y-78144856D01*
X153546506Y-78160730D01*
X153547248Y-78168590D01*
X153550775Y-78224650D01*
X153553225Y-78232191D01*
X153553321Y-78232487D01*
X153558494Y-78255631D01*
X153558532Y-78255935D01*
X153558533Y-78255940D01*
X153559526Y-78263797D01*
X153562442Y-78271162D01*
X153562443Y-78271166D01*
X153580199Y-78316011D01*
X153582871Y-78323430D01*
X153600236Y-78376875D01*
X153604486Y-78383571D01*
X153604486Y-78383572D01*
X153604650Y-78383831D01*
X153615415Y-78404958D01*
X153615529Y-78405246D01*
X153615532Y-78405251D01*
X153618448Y-78412617D01*
X153623104Y-78419025D01*
X153623107Y-78419031D01*
X153651458Y-78458052D01*
X153655901Y-78464589D01*
X153686000Y-78512018D01*
X153691778Y-78517444D01*
X153691779Y-78517445D01*
X153692007Y-78517659D01*
X153707688Y-78535446D01*
X153712528Y-78542107D01*
X153718637Y-78547161D01*
X153718638Y-78547162D01*
X153755796Y-78577903D01*
X153761730Y-78583134D01*
X153796898Y-78616158D01*
X153796901Y-78616160D01*
X153802679Y-78621586D01*
X153809903Y-78625558D01*
X153829506Y-78638881D01*
X153829746Y-78639080D01*
X153829753Y-78639084D01*
X153835856Y-78644133D01*
X153875400Y-78662741D01*
X153886676Y-78668047D01*
X153893708Y-78671629D01*
X153942940Y-78698695D01*
X153950615Y-78700665D01*
X153950621Y-78700668D01*
X153950919Y-78700744D01*
X153973228Y-78708776D01*
X153973503Y-78708906D01*
X153973511Y-78708909D01*
X153980682Y-78712283D01*
X154035849Y-78722806D01*
X154043558Y-78724529D01*
X154077551Y-78733257D01*
X154090293Y-78736529D01*
X154090294Y-78736529D01*
X154097970Y-78738500D01*
X154106207Y-78738500D01*
X154129816Y-78740732D01*
X154130119Y-78740790D01*
X154130123Y-78740790D01*
X154137906Y-78742275D01*
X154193951Y-78738749D01*
X154201862Y-78738500D01*
X158943406Y-78738500D01*
X159011527Y-78758502D01*
X159032501Y-78775405D01*
X173827595Y-93570499D01*
X173861621Y-93632811D01*
X173864500Y-93659594D01*
X173864500Y-122381096D01*
X173844498Y-122449217D01*
X173803867Y-122488814D01*
X173686641Y-122559949D01*
X173682611Y-122563446D01*
X173588075Y-122645480D01*
X173510770Y-122712561D01*
X173507387Y-122716687D01*
X173507383Y-122716691D01*
X173434262Y-122805869D01*
X173363128Y-122892624D01*
X173360490Y-122897259D01*
X173360487Y-122897263D01*
X173337155Y-122938252D01*
X173286073Y-122987558D01*
X173216442Y-123001420D01*
X173150371Y-122975437D01*
X173123133Y-122946287D01*
X173034388Y-122814470D01*
X173031196Y-122809728D01*
X172870468Y-122641242D01*
X172683650Y-122502246D01*
X172556574Y-122437637D01*
X172480842Y-122399133D01*
X172480841Y-122399133D01*
X172476084Y-122396714D01*
X172337299Y-122353620D01*
X172258807Y-122329247D01*
X172258801Y-122329246D01*
X172253704Y-122327663D01*
X172129340Y-122311180D01*
X172028152Y-122297768D01*
X172028148Y-122297768D01*
X172022868Y-122297068D01*
X172017538Y-122297268D01*
X172017537Y-122297268D01*
X171906523Y-122301435D01*
X171790178Y-122305803D01*
X171784955Y-122306899D01*
X171567514Y-122352523D01*
X171567511Y-122352524D01*
X171562287Y-122353620D01*
X171522453Y-122369351D01*
X171510324Y-122374141D01*
X171439618Y-122380559D01*
X171374948Y-122346044D01*
X160142545Y-111113640D01*
X163524463Y-111113640D01*
X163542163Y-111294160D01*
X163599418Y-111466273D01*
X163603065Y-111472295D01*
X163603066Y-111472297D01*
X163650074Y-111549916D01*
X163693380Y-111621424D01*
X163819382Y-111751902D01*
X163971159Y-111851222D01*
X163977763Y-111853678D01*
X163977765Y-111853679D01*
X164134558Y-111911990D01*
X164134560Y-111911990D01*
X164141168Y-111914448D01*
X164224995Y-111925633D01*
X164313980Y-111937507D01*
X164313984Y-111937507D01*
X164320961Y-111938438D01*
X164327972Y-111937800D01*
X164327976Y-111937800D01*
X164470459Y-111924832D01*
X164501600Y-111921998D01*
X164508302Y-111919820D01*
X164508304Y-111919820D01*
X164667409Y-111868124D01*
X164667412Y-111868123D01*
X164674108Y-111865947D01*
X164829912Y-111773069D01*
X164961266Y-111647982D01*
X165061643Y-111496902D01*
X165103423Y-111386917D01*
X165123555Y-111333920D01*
X165123556Y-111333918D01*
X165126055Y-111327338D01*
X165129779Y-111300844D01*
X165135639Y-111259145D01*
X165164927Y-111194471D01*
X165171318Y-111187586D01*
X167103499Y-109255405D01*
X167165811Y-109221379D01*
X167192594Y-109218500D01*
X168871903Y-109218500D01*
X168940896Y-109239068D01*
X168965862Y-109255405D01*
X169051159Y-109311222D01*
X169057763Y-109313678D01*
X169057765Y-109313679D01*
X169214558Y-109371990D01*
X169214560Y-109371990D01*
X169221168Y-109374448D01*
X169304995Y-109385633D01*
X169393980Y-109397507D01*
X169393984Y-109397507D01*
X169400961Y-109398438D01*
X169407972Y-109397800D01*
X169407976Y-109397800D01*
X169550459Y-109384832D01*
X169581600Y-109381998D01*
X169588302Y-109379820D01*
X169588304Y-109379820D01*
X169747409Y-109328124D01*
X169747412Y-109328123D01*
X169754108Y-109325947D01*
X169909912Y-109233069D01*
X170041266Y-109107982D01*
X170141643Y-108956902D01*
X170206055Y-108787338D01*
X170223907Y-108660314D01*
X170230748Y-108611639D01*
X170230748Y-108611636D01*
X170231299Y-108607717D01*
X170231616Y-108585000D01*
X170211397Y-108404745D01*
X170196686Y-108362500D01*
X170154064Y-108240106D01*
X170154062Y-108240103D01*
X170151745Y-108233448D01*
X170073122Y-108107624D01*
X170059359Y-108085598D01*
X170055626Y-108079624D01*
X170016559Y-108040283D01*
X169932778Y-107955915D01*
X169932774Y-107955912D01*
X169927815Y-107950918D01*
X169916697Y-107943862D01*
X169868538Y-107913300D01*
X169774666Y-107853727D01*
X169711147Y-107831109D01*
X169610425Y-107795243D01*
X169610420Y-107795242D01*
X169603790Y-107792881D01*
X169596802Y-107792048D01*
X169596799Y-107792047D01*
X169473698Y-107777368D01*
X169423680Y-107771404D01*
X169416677Y-107772140D01*
X169416676Y-107772140D01*
X169250288Y-107789628D01*
X169250286Y-107789629D01*
X169243288Y-107790364D01*
X169071579Y-107848818D01*
X168935039Y-107932819D01*
X168869019Y-107951500D01*
X166956763Y-107951500D01*
X166945579Y-107950973D01*
X166938091Y-107949299D01*
X166930168Y-107949548D01*
X166870033Y-107951438D01*
X166866075Y-107951500D01*
X166838144Y-107951500D01*
X166834229Y-107951995D01*
X166834225Y-107951995D01*
X166834167Y-107952003D01*
X166834138Y-107952006D01*
X166822296Y-107952939D01*
X166778110Y-107954327D01*
X166760744Y-107959372D01*
X166758658Y-107959978D01*
X166739306Y-107963986D01*
X166727068Y-107965532D01*
X166727066Y-107965533D01*
X166719203Y-107966526D01*
X166678086Y-107982806D01*
X166666885Y-107986641D01*
X166624406Y-107998982D01*
X166617587Y-108003015D01*
X166617582Y-108003017D01*
X166606971Y-108009293D01*
X166589221Y-108017990D01*
X166570383Y-108025448D01*
X166563967Y-108030109D01*
X166563966Y-108030110D01*
X166534625Y-108051428D01*
X166524701Y-108057947D01*
X166493460Y-108076422D01*
X166493455Y-108076426D01*
X166486637Y-108080458D01*
X166472313Y-108094782D01*
X166457281Y-108107621D01*
X166440893Y-108119528D01*
X166412712Y-108153593D01*
X166404722Y-108162373D01*
X164276908Y-110290187D01*
X164214596Y-110324213D01*
X164200986Y-110326402D01*
X164192210Y-110327324D01*
X164170288Y-110329628D01*
X164170286Y-110329628D01*
X164163288Y-110330364D01*
X163991579Y-110388818D01*
X163985575Y-110392512D01*
X163843095Y-110480166D01*
X163843092Y-110480168D01*
X163837088Y-110483862D01*
X163832053Y-110488793D01*
X163832050Y-110488795D01*
X163725988Y-110592659D01*
X163707493Y-110610771D01*
X163609235Y-110763238D01*
X163606826Y-110769858D01*
X163606824Y-110769861D01*
X163549606Y-110927066D01*
X163547197Y-110933685D01*
X163524463Y-111113640D01*
X160142545Y-111113640D01*
X160011872Y-110982967D01*
X159977846Y-110920655D01*
X159982911Y-110849840D01*
X160028694Y-110790660D01*
X160037776Y-110784301D01*
X160187301Y-110634776D01*
X160308589Y-110461558D01*
X160311643Y-110455010D01*
X160395633Y-110274892D01*
X160395634Y-110274891D01*
X160397956Y-110269910D01*
X160404599Y-110245120D01*
X160451262Y-110070970D01*
X160451262Y-110070968D01*
X160452686Y-110065655D01*
X160471116Y-109855000D01*
X160452686Y-109644345D01*
X160397956Y-109440090D01*
X160395633Y-109435108D01*
X160310912Y-109253423D01*
X160310910Y-109253420D01*
X160308589Y-109248442D01*
X160187301Y-109075224D01*
X160037776Y-108925699D01*
X159864558Y-108804411D01*
X159859580Y-108802090D01*
X159859577Y-108802088D01*
X159677892Y-108717367D01*
X159677891Y-108717366D01*
X159672910Y-108715044D01*
X159667602Y-108713622D01*
X159667600Y-108713621D01*
X159473970Y-108661738D01*
X159473968Y-108661738D01*
X159468655Y-108660314D01*
X159258000Y-108641884D01*
X159047345Y-108660314D01*
X159042032Y-108661738D01*
X159042030Y-108661738D01*
X158848400Y-108713621D01*
X158848398Y-108713622D01*
X158843090Y-108715044D01*
X158838109Y-108717366D01*
X158838108Y-108717367D01*
X158656423Y-108802088D01*
X158656420Y-108802090D01*
X158651442Y-108804411D01*
X158478224Y-108925699D01*
X158328699Y-109075224D01*
X158207411Y-109248442D01*
X158205090Y-109253420D01*
X158205088Y-109253423D01*
X158120367Y-109435108D01*
X158118044Y-109440090D01*
X158063314Y-109644345D01*
X158044884Y-109855000D01*
X158063314Y-110065655D01*
X158064737Y-110070967D01*
X158064738Y-110070971D01*
X158069140Y-110087397D01*
X158067452Y-110158374D01*
X158027659Y-110217171D01*
X157962395Y-110245120D01*
X157947434Y-110246011D01*
X151707106Y-110246011D01*
X151638985Y-110226009D01*
X151618011Y-110209106D01*
X143643905Y-102235000D01*
X158044884Y-102235000D01*
X158063314Y-102445655D01*
X158118044Y-102649910D01*
X158207411Y-102841558D01*
X158328699Y-103014776D01*
X158478224Y-103164301D01*
X158651442Y-103285589D01*
X158656420Y-103287910D01*
X158656423Y-103287912D01*
X158838108Y-103372633D01*
X158843090Y-103374956D01*
X158848398Y-103376378D01*
X158848400Y-103376379D01*
X159042030Y-103428262D01*
X159042032Y-103428262D01*
X159047345Y-103429686D01*
X159258000Y-103448116D01*
X159468655Y-103429686D01*
X159473968Y-103428262D01*
X159473970Y-103428262D01*
X159667600Y-103376379D01*
X159667602Y-103376378D01*
X159672910Y-103374956D01*
X159677892Y-103372633D01*
X159859577Y-103287912D01*
X159859580Y-103287910D01*
X159864558Y-103285589D01*
X160037776Y-103164301D01*
X160187301Y-103014776D01*
X160308589Y-102841558D01*
X160397956Y-102649910D01*
X160452686Y-102445655D01*
X160471116Y-102235000D01*
X160452686Y-102024345D01*
X160397956Y-101820090D01*
X160308589Y-101628442D01*
X160187301Y-101455224D01*
X160037776Y-101305699D01*
X159864558Y-101184411D01*
X159859580Y-101182090D01*
X159859577Y-101182088D01*
X159677892Y-101097367D01*
X159677891Y-101097366D01*
X159672910Y-101095044D01*
X159667602Y-101093622D01*
X159667600Y-101093621D01*
X159641796Y-101086707D01*
X159581173Y-101049755D01*
X159550152Y-100985894D01*
X159558580Y-100915400D01*
X159603783Y-100860653D01*
X159641796Y-100843293D01*
X159667600Y-100836379D01*
X159667602Y-100836378D01*
X159672910Y-100834956D01*
X159677892Y-100832633D01*
X159859577Y-100747912D01*
X159859580Y-100747910D01*
X159864558Y-100745589D01*
X160037776Y-100624301D01*
X160187301Y-100474776D01*
X160308589Y-100301558D01*
X160319041Y-100279145D01*
X160395633Y-100114892D01*
X160395634Y-100114891D01*
X160397956Y-100109910D01*
X160409173Y-100068050D01*
X160451262Y-99910970D01*
X160451262Y-99910968D01*
X160452686Y-99905655D01*
X160471116Y-99695000D01*
X160452686Y-99484345D01*
X160402162Y-99295787D01*
X160399379Y-99285400D01*
X160399378Y-99285398D01*
X160397956Y-99280090D01*
X160395633Y-99275108D01*
X160310912Y-99093423D01*
X160310910Y-99093420D01*
X160308589Y-99088442D01*
X160187301Y-98915224D01*
X160037776Y-98765699D01*
X159864558Y-98644411D01*
X159859580Y-98642090D01*
X159859577Y-98642088D01*
X159677892Y-98557367D01*
X159677891Y-98557366D01*
X159672910Y-98555044D01*
X159667602Y-98553622D01*
X159667600Y-98553621D01*
X159473970Y-98501738D01*
X159473968Y-98501738D01*
X159468655Y-98500314D01*
X159258000Y-98481884D01*
X159047345Y-98500314D01*
X159042032Y-98501738D01*
X159042030Y-98501738D01*
X158848400Y-98553621D01*
X158848398Y-98553622D01*
X158843090Y-98555044D01*
X158838109Y-98557366D01*
X158838108Y-98557367D01*
X158656423Y-98642088D01*
X158656420Y-98642090D01*
X158651442Y-98644411D01*
X158478224Y-98765699D01*
X158328699Y-98915224D01*
X158207411Y-99088442D01*
X158205090Y-99093420D01*
X158205088Y-99093423D01*
X158120367Y-99275108D01*
X158118044Y-99280090D01*
X158116622Y-99285398D01*
X158116621Y-99285400D01*
X158113838Y-99295787D01*
X158063314Y-99484345D01*
X158044884Y-99695000D01*
X158063314Y-99905655D01*
X158064738Y-99910968D01*
X158064738Y-99910970D01*
X158106828Y-100068050D01*
X158118044Y-100109910D01*
X158120366Y-100114891D01*
X158120367Y-100114892D01*
X158196960Y-100279145D01*
X158207411Y-100301558D01*
X158328699Y-100474776D01*
X158478224Y-100624301D01*
X158651442Y-100745589D01*
X158656420Y-100747910D01*
X158656423Y-100747912D01*
X158838108Y-100832633D01*
X158843090Y-100834956D01*
X158848398Y-100836378D01*
X158848400Y-100836379D01*
X158874204Y-100843293D01*
X158934827Y-100880245D01*
X158965848Y-100944106D01*
X158957420Y-101014600D01*
X158912217Y-101069347D01*
X158874204Y-101086707D01*
X158848400Y-101093621D01*
X158848398Y-101093622D01*
X158843090Y-101095044D01*
X158838109Y-101097366D01*
X158838108Y-101097367D01*
X158656423Y-101182088D01*
X158656420Y-101182090D01*
X158651442Y-101184411D01*
X158478224Y-101305699D01*
X158328699Y-101455224D01*
X158207411Y-101628442D01*
X158118044Y-101820090D01*
X158063314Y-102024345D01*
X158044884Y-102235000D01*
X143643905Y-102235000D01*
X139608405Y-98199500D01*
X139574379Y-98137188D01*
X139571500Y-98110405D01*
X139571500Y-94579408D01*
X139591502Y-94511287D01*
X139645158Y-94464794D01*
X139715432Y-94454690D01*
X139750749Y-94465213D01*
X139788103Y-94482631D01*
X139788108Y-94482633D01*
X139793090Y-94484956D01*
X139798398Y-94486378D01*
X139798400Y-94486379D01*
X139992030Y-94538262D01*
X139992032Y-94538262D01*
X139997345Y-94539686D01*
X140208000Y-94558116D01*
X140418655Y-94539686D01*
X140423968Y-94538262D01*
X140423970Y-94538262D01*
X140617600Y-94486379D01*
X140617602Y-94486378D01*
X140622910Y-94484956D01*
X140687816Y-94454690D01*
X140809577Y-94397912D01*
X140809580Y-94397910D01*
X140814558Y-94395589D01*
X140987776Y-94274301D01*
X141137301Y-94124776D01*
X141258589Y-93951558D01*
X141278210Y-93909482D01*
X141345633Y-93764892D01*
X141345634Y-93764891D01*
X141347956Y-93759910D01*
X141401175Y-93561296D01*
X141401262Y-93560970D01*
X141401262Y-93560968D01*
X141402686Y-93555655D01*
X141421116Y-93345000D01*
X146614884Y-93345000D01*
X146633314Y-93555655D01*
X146634738Y-93560968D01*
X146634738Y-93560970D01*
X146634826Y-93561296D01*
X146688044Y-93759910D01*
X146690366Y-93764891D01*
X146690367Y-93764892D01*
X146757791Y-93909482D01*
X146777411Y-93951558D01*
X146898699Y-94124776D01*
X147048224Y-94274301D01*
X147221442Y-94395589D01*
X147226420Y-94397910D01*
X147226423Y-94397912D01*
X147348184Y-94454690D01*
X147413090Y-94484956D01*
X147418398Y-94486378D01*
X147418400Y-94486379D01*
X147612030Y-94538262D01*
X147612032Y-94538262D01*
X147617345Y-94539686D01*
X147828000Y-94558116D01*
X148038655Y-94539686D01*
X148043968Y-94538262D01*
X148043970Y-94538262D01*
X148237600Y-94486379D01*
X148237602Y-94486378D01*
X148242910Y-94484956D01*
X148307816Y-94454690D01*
X148429577Y-94397912D01*
X148429580Y-94397910D01*
X148434558Y-94395589D01*
X148607776Y-94274301D01*
X148757301Y-94124776D01*
X148878589Y-93951558D01*
X148898210Y-93909482D01*
X148965633Y-93764892D01*
X148965634Y-93764891D01*
X148967956Y-93759910D01*
X149021175Y-93561296D01*
X149021262Y-93560970D01*
X149021262Y-93560968D01*
X149022686Y-93555655D01*
X149041116Y-93345000D01*
X149022686Y-93134345D01*
X149020340Y-93125589D01*
X148969379Y-92935400D01*
X148969378Y-92935398D01*
X148967956Y-92930090D01*
X148960596Y-92914306D01*
X148880912Y-92743423D01*
X148880910Y-92743420D01*
X148878589Y-92738442D01*
X148757301Y-92565224D01*
X148607776Y-92415699D01*
X148434558Y-92294411D01*
X148429580Y-92292090D01*
X148429577Y-92292088D01*
X148247892Y-92207367D01*
X148247891Y-92207366D01*
X148242910Y-92205044D01*
X148237602Y-92203622D01*
X148237600Y-92203621D01*
X148043970Y-92151738D01*
X148043968Y-92151738D01*
X148038655Y-92150314D01*
X147828000Y-92131884D01*
X147617345Y-92150314D01*
X147612032Y-92151738D01*
X147612030Y-92151738D01*
X147418400Y-92203621D01*
X147418398Y-92203622D01*
X147413090Y-92205044D01*
X147408109Y-92207366D01*
X147408108Y-92207367D01*
X147226423Y-92292088D01*
X147226420Y-92292090D01*
X147221442Y-92294411D01*
X147048224Y-92415699D01*
X146898699Y-92565224D01*
X146777411Y-92738442D01*
X146775090Y-92743420D01*
X146775088Y-92743423D01*
X146695404Y-92914306D01*
X146688044Y-92930090D01*
X146686622Y-92935398D01*
X146686621Y-92935400D01*
X146635660Y-93125589D01*
X146633314Y-93134345D01*
X146614884Y-93345000D01*
X141421116Y-93345000D01*
X141402686Y-93134345D01*
X141400340Y-93125589D01*
X141349379Y-92935400D01*
X141349378Y-92935398D01*
X141347956Y-92930090D01*
X141340596Y-92914306D01*
X141260912Y-92743423D01*
X141260910Y-92743420D01*
X141258589Y-92738442D01*
X141137301Y-92565224D01*
X140987776Y-92415699D01*
X140814558Y-92294411D01*
X140809580Y-92292090D01*
X140809577Y-92292088D01*
X140627892Y-92207367D01*
X140627891Y-92207366D01*
X140622910Y-92205044D01*
X140617602Y-92203622D01*
X140617600Y-92203621D01*
X140423970Y-92151738D01*
X140423968Y-92151738D01*
X140418655Y-92150314D01*
X140208000Y-92131884D01*
X139997345Y-92150314D01*
X139992032Y-92151738D01*
X139992030Y-92151738D01*
X139798400Y-92203621D01*
X139798398Y-92203622D01*
X139793090Y-92205044D01*
X139788108Y-92207367D01*
X139788103Y-92207369D01*
X139750749Y-92224787D01*
X139680557Y-92235448D01*
X139615745Y-92206467D01*
X139576889Y-92147047D01*
X139571500Y-92110592D01*
X139571500Y-92075000D01*
X158044884Y-92075000D01*
X158063314Y-92285655D01*
X158064738Y-92290968D01*
X158064738Y-92290970D01*
X158066506Y-92297566D01*
X158118044Y-92489910D01*
X158120366Y-92494891D01*
X158120367Y-92494892D01*
X158155268Y-92569736D01*
X158207411Y-92681558D01*
X158328699Y-92854776D01*
X158478224Y-93004301D01*
X158651442Y-93125589D01*
X158656420Y-93127910D01*
X158656423Y-93127912D01*
X158824516Y-93206295D01*
X158843090Y-93214956D01*
X158848398Y-93216378D01*
X158848400Y-93216379D01*
X159042030Y-93268262D01*
X159042032Y-93268262D01*
X159047345Y-93269686D01*
X159258000Y-93288116D01*
X159468655Y-93269686D01*
X159473968Y-93268262D01*
X159473970Y-93268262D01*
X159667600Y-93216379D01*
X159667602Y-93216378D01*
X159672910Y-93214956D01*
X159691484Y-93206295D01*
X159859577Y-93127912D01*
X159859580Y-93127910D01*
X159864558Y-93125589D01*
X160037776Y-93004301D01*
X160187301Y-92854776D01*
X160308589Y-92681558D01*
X160360733Y-92569736D01*
X160395633Y-92494892D01*
X160395634Y-92494891D01*
X160397956Y-92489910D01*
X160449495Y-92297566D01*
X160451262Y-92290970D01*
X160451262Y-92290968D01*
X160452686Y-92285655D01*
X160471116Y-92075000D01*
X160452686Y-91864345D01*
X160451262Y-91859030D01*
X160399379Y-91665400D01*
X160399378Y-91665398D01*
X160397956Y-91660090D01*
X160308589Y-91468442D01*
X160187301Y-91295224D01*
X160037776Y-91145699D01*
X159864558Y-91024411D01*
X159859580Y-91022090D01*
X159859577Y-91022088D01*
X159677892Y-90937367D01*
X159677891Y-90937366D01*
X159672910Y-90935044D01*
X159667602Y-90933622D01*
X159667600Y-90933621D01*
X159473970Y-90881738D01*
X159473968Y-90881738D01*
X159468655Y-90880314D01*
X159258000Y-90861884D01*
X159047345Y-90880314D01*
X159042032Y-90881738D01*
X159042030Y-90881738D01*
X158848400Y-90933621D01*
X158848398Y-90933622D01*
X158843090Y-90935044D01*
X158838109Y-90937366D01*
X158838108Y-90937367D01*
X158656423Y-91022088D01*
X158656420Y-91022090D01*
X158651442Y-91024411D01*
X158478224Y-91145699D01*
X158328699Y-91295224D01*
X158207411Y-91468442D01*
X158118044Y-91660090D01*
X158116622Y-91665398D01*
X158116621Y-91665400D01*
X158064738Y-91859030D01*
X158063314Y-91864345D01*
X158044884Y-92075000D01*
X139571500Y-92075000D01*
X139571500Y-88343763D01*
X139572027Y-88332579D01*
X139573701Y-88325091D01*
X139571562Y-88257032D01*
X139571500Y-88253075D01*
X139571500Y-88225144D01*
X139570994Y-88221138D01*
X139570061Y-88209292D01*
X139568922Y-88173037D01*
X139568673Y-88165110D01*
X139563022Y-88145658D01*
X139559014Y-88126306D01*
X139557467Y-88114063D01*
X139556474Y-88106203D01*
X139542309Y-88070425D01*
X139540200Y-88065097D01*
X139536355Y-88053870D01*
X139535721Y-88051687D01*
X139524018Y-88011407D01*
X139519984Y-88004585D01*
X139519981Y-88004579D01*
X139513706Y-87993968D01*
X139505010Y-87976218D01*
X139500472Y-87964756D01*
X139500469Y-87964751D01*
X139497552Y-87957383D01*
X139471573Y-87921625D01*
X139465057Y-87911707D01*
X139446575Y-87880457D01*
X139442542Y-87873637D01*
X139428218Y-87859313D01*
X139415376Y-87844278D01*
X139403472Y-87827893D01*
X139369406Y-87799711D01*
X139360627Y-87791722D01*
X137293905Y-85725000D01*
X138994884Y-85725000D01*
X139013314Y-85935655D01*
X139014738Y-85940968D01*
X139014738Y-85940970D01*
X139035902Y-86019953D01*
X139068044Y-86139910D01*
X139070366Y-86144891D01*
X139070367Y-86144892D01*
X139151623Y-86319145D01*
X139157411Y-86331558D01*
X139278699Y-86504776D01*
X139428224Y-86654301D01*
X139601442Y-86775589D01*
X139606420Y-86777910D01*
X139606423Y-86777912D01*
X139788108Y-86862633D01*
X139793090Y-86864956D01*
X139798398Y-86866378D01*
X139798400Y-86866379D01*
X139992030Y-86918262D01*
X139992032Y-86918262D01*
X139997345Y-86919686D01*
X140208000Y-86938116D01*
X140418655Y-86919686D01*
X140423968Y-86918262D01*
X140423970Y-86918262D01*
X140617600Y-86866379D01*
X140617602Y-86866378D01*
X140622910Y-86864956D01*
X140627892Y-86862633D01*
X140809577Y-86777912D01*
X140809580Y-86777910D01*
X140814558Y-86775589D01*
X140987776Y-86654301D01*
X141137301Y-86504776D01*
X141258589Y-86331558D01*
X141264378Y-86319145D01*
X141345633Y-86144892D01*
X141345634Y-86144891D01*
X141347956Y-86139910D01*
X141380099Y-86019953D01*
X141401262Y-85940970D01*
X141401262Y-85940968D01*
X141402686Y-85935655D01*
X141421116Y-85725000D01*
X146614884Y-85725000D01*
X146633314Y-85935655D01*
X146634738Y-85940968D01*
X146634738Y-85940970D01*
X146655902Y-86019953D01*
X146688044Y-86139910D01*
X146690366Y-86144891D01*
X146690367Y-86144892D01*
X146771623Y-86319145D01*
X146777411Y-86331558D01*
X146898699Y-86504776D01*
X147048224Y-86654301D01*
X147221442Y-86775589D01*
X147226420Y-86777910D01*
X147226423Y-86777912D01*
X147408108Y-86862633D01*
X147413090Y-86864956D01*
X147418398Y-86866378D01*
X147418400Y-86866379D01*
X147612030Y-86918262D01*
X147612032Y-86918262D01*
X147617345Y-86919686D01*
X147828000Y-86938116D01*
X148038655Y-86919686D01*
X148043968Y-86918262D01*
X148043970Y-86918262D01*
X148237600Y-86866379D01*
X148237602Y-86866378D01*
X148242910Y-86864956D01*
X148247892Y-86862633D01*
X148429577Y-86777912D01*
X148429580Y-86777910D01*
X148434558Y-86775589D01*
X148607776Y-86654301D01*
X148757301Y-86504776D01*
X148878589Y-86331558D01*
X148884378Y-86319145D01*
X148965633Y-86144892D01*
X148965634Y-86144891D01*
X148967956Y-86139910D01*
X149000099Y-86019953D01*
X149021262Y-85940970D01*
X149021262Y-85940968D01*
X149022686Y-85935655D01*
X149041116Y-85725000D01*
X149022686Y-85514345D01*
X148976414Y-85341656D01*
X148969379Y-85315400D01*
X148969378Y-85315398D01*
X148967956Y-85310090D01*
X148965633Y-85305108D01*
X148880912Y-85123423D01*
X148880910Y-85123420D01*
X148878589Y-85118442D01*
X148757301Y-84945224D01*
X148607776Y-84795699D01*
X148434558Y-84674411D01*
X148429580Y-84672090D01*
X148429577Y-84672088D01*
X148247892Y-84587367D01*
X148247891Y-84587366D01*
X148242910Y-84585044D01*
X148237602Y-84583622D01*
X148237600Y-84583621D01*
X148043970Y-84531738D01*
X148043968Y-84531738D01*
X148038655Y-84530314D01*
X147828000Y-84511884D01*
X147617345Y-84530314D01*
X147612032Y-84531738D01*
X147612030Y-84531738D01*
X147418400Y-84583621D01*
X147418398Y-84583622D01*
X147413090Y-84585044D01*
X147408109Y-84587366D01*
X147408108Y-84587367D01*
X147226423Y-84672088D01*
X147226420Y-84672090D01*
X147221442Y-84674411D01*
X147048224Y-84795699D01*
X146898699Y-84945224D01*
X146777411Y-85118442D01*
X146775090Y-85123420D01*
X146775088Y-85123423D01*
X146690367Y-85305108D01*
X146688044Y-85310090D01*
X146686622Y-85315398D01*
X146686621Y-85315400D01*
X146679586Y-85341656D01*
X146633314Y-85514345D01*
X146614884Y-85725000D01*
X141421116Y-85725000D01*
X141402686Y-85514345D01*
X141356414Y-85341656D01*
X141349379Y-85315400D01*
X141349378Y-85315398D01*
X141347956Y-85310090D01*
X141345633Y-85305108D01*
X141260912Y-85123423D01*
X141260910Y-85123420D01*
X141258589Y-85118442D01*
X141137301Y-84945224D01*
X140987776Y-84795699D01*
X140814558Y-84674411D01*
X140809580Y-84672090D01*
X140809577Y-84672088D01*
X140627892Y-84587367D01*
X140627891Y-84587366D01*
X140622910Y-84585044D01*
X140617602Y-84583622D01*
X140617600Y-84583621D01*
X140423970Y-84531738D01*
X140423968Y-84531738D01*
X140418655Y-84530314D01*
X140208000Y-84511884D01*
X139997345Y-84530314D01*
X139992032Y-84531738D01*
X139992030Y-84531738D01*
X139798400Y-84583621D01*
X139798398Y-84583622D01*
X139793090Y-84585044D01*
X139788109Y-84587366D01*
X139788108Y-84587367D01*
X139606423Y-84672088D01*
X139606420Y-84672090D01*
X139601442Y-84674411D01*
X139428224Y-84795699D01*
X139278699Y-84945224D01*
X139157411Y-85118442D01*
X139155090Y-85123420D01*
X139155088Y-85123423D01*
X139070367Y-85305108D01*
X139068044Y-85310090D01*
X139066622Y-85315398D01*
X139066621Y-85315400D01*
X139059586Y-85341656D01*
X139013314Y-85514345D01*
X138994884Y-85725000D01*
X137293905Y-85725000D01*
X133004405Y-81435500D01*
X132970379Y-81373188D01*
X132967500Y-81346405D01*
X132967500Y-77008904D01*
X132987502Y-76940783D01*
X133028134Y-76901185D01*
X133033133Y-76898152D01*
X133145359Y-76830051D01*
X133149855Y-76826150D01*
X133317197Y-76680939D01*
X133317199Y-76680937D01*
X133321230Y-76677439D01*
X133324613Y-76673313D01*
X133324617Y-76673309D01*
X133423776Y-76552374D01*
X133468872Y-76497376D01*
X133494845Y-76451748D01*
X133545927Y-76402442D01*
X133615558Y-76388580D01*
X133681629Y-76414563D01*
X133708867Y-76443713D01*
X133800804Y-76580272D01*
X133961532Y-76748758D01*
X134148350Y-76887754D01*
X134153102Y-76890170D01*
X134350244Y-76990402D01*
X134355916Y-76993286D01*
X134467106Y-77027811D01*
X134573193Y-77060753D01*
X134573199Y-77060754D01*
X134578296Y-77062337D01*
X134702660Y-77078820D01*
X134803848Y-77092232D01*
X134803852Y-77092232D01*
X134809132Y-77092932D01*
X134814462Y-77092732D01*
X134814463Y-77092732D01*
X134925477Y-77088564D01*
X135041822Y-77084197D01*
X135146005Y-77062337D01*
X135264486Y-77037477D01*
X135264489Y-77037476D01*
X135269713Y-77036380D01*
X135486290Y-76950850D01*
X135685359Y-76830051D01*
X135689855Y-76826150D01*
X135857197Y-76680939D01*
X135857199Y-76680937D01*
X135861230Y-76677439D01*
X135864613Y-76673313D01*
X135864617Y-76673309D01*
X135963776Y-76552374D01*
X136008872Y-76497376D01*
X136035122Y-76451261D01*
X136086202Y-76401956D01*
X136155832Y-76388094D01*
X136221904Y-76414077D01*
X136249143Y-76443227D01*
X136338215Y-76575530D01*
X136344876Y-76583816D01*
X136498180Y-76744520D01*
X136506148Y-76751569D01*
X136684336Y-76884144D01*
X136693366Y-76889743D01*
X136891347Y-76990402D01*
X136901208Y-76994405D01*
X137113301Y-77060263D01*
X137123696Y-77062548D01*
X137142041Y-77064980D01*
X137156208Y-77062783D01*
X137160000Y-77049599D01*
X137160000Y-75437000D01*
X137180002Y-75368879D01*
X137233658Y-75322386D01*
X137286000Y-75311000D01*
X137542000Y-75311000D01*
X137610121Y-75331002D01*
G37*
G04 #@! TD.AperFunction*
M02*
